<svg xmlns="http://www.w3.org/2000/svg" xmlns:xlink="http://www.w3.org/1999/xlink" width="500" zoomAndPan="magnify" viewBox="0 0 375 374.999991" height="500" preserveAspectRatio="xMidYMid meet" version="1.0"><defs><clipPath id="8c5c87a5fb"><path d="M 187.5 0 C 83.945312 0 0 83.945312 0 187.5 C 0 291.054688 83.945312 375 187.5 375 C 291.054688 375 375 291.054688 375 187.5 C 375 83.945312 291.054688 0 187.5 0 " clip-rule="nonzero"/></clipPath><clipPath id="db139a7f0f"><path d="M 50 114 L 346.535156 114 L 346.535156 259 L 50 259 Z M 50 114 " clip-rule="nonzero"/></clipPath><clipPath id="c8b347f14f"><path d="M 28.535156 96.691406 L 63 96.691406 L 63 278.191406 L 28.535156 278.191406 Z M 28.535156 96.691406 " clip-rule="nonzero"/></clipPath><clipPath id="ecf9eeeb3f"><path d="M 95 246 L 236 246 L 236 278.191406 L 95 278.191406 Z M 95 246 " clip-rule="nonzero"/></clipPath><clipPath id="fcccd2e531"><path d="M 176.785156 213.980469 L 326.785156 213.980469 L 326.785156 295.675781 L 176.785156 295.675781 Z M 176.785156 213.980469 " clip-rule="nonzero"/></clipPath><clipPath id="0b33f0d67b"><path d="M 222.582031 219.90625 C 218.136719 221.792969 213.847656 224.132812 209.839844 226.851562 C 207.433594 228.484375 205.121094 230.261719 202.914062 232.167969 L 213.855469 243.863281 C 218.355469 240.0625 223.367188 236.980469 228.800781 234.671875 C 229.832031 234.234375 230.871094 233.828125 231.917969 233.449219 L 226.804688 218.261719 C 225.382812 218.765625 223.976562 219.3125 222.582031 219.90625 Z M 279.292969 236.820312 L 287.753906 223.191406 C 285.550781 221.980469 283.289062 220.882812 280.988281 219.90625 C 275.058594 217.382812 268.890625 215.660156 262.5625 214.746094 L 260.207031 230.609375 C 265.210938 231.324219 270.085938 232.679688 274.769531 234.671875 C 276.3125 235.328125 277.820312 236.042969 279.292969 236.820312 Z M 182.667969 260.003906 C 178.945312 268.84375 176.972656 278.203125 176.785156 287.84375 L 192.75 287.84375 C 192.929688 280.359375 194.484375 273.101562 197.367188 266.25 C 197.441406 266.078125 197.515625 265.90625 197.589844 265.730469 L 182.726562 259.871094 C 182.707031 259.914062 182.6875 259.957031 182.667969 260.003906 Z M 257.5625 230.292969 L 259.921875 214.414062 C 257.238281 214.125 254.523438 213.976562 251.785156 213.976562 C 244.085938 213.976562 236.558594 215.132812 229.328125 217.414062 L 234.445312 232.609375 C 240.03125 230.882812 245.839844 230.011719 251.785156 230.011719 C 253.726562 230.011719 255.652344 230.105469 257.5625 230.292969 Z M 293.542969 247.390625 C 293.902344 247.75 294.253906 248.113281 294.601562 248.480469 L 308.242188 240.183594 C 308.332031 240.128906 308.425781 240.082031 308.519531 240.035156 C 307.335938 238.664062 306.105469 237.332031 304.832031 236.050781 C 301.4375 232.644531 297.703125 229.546875 293.734375 226.851562 C 292.535156 226.039062 291.308594 225.261719 290.0625 224.519531 L 281.621094 238.121094 C 285.953125 240.671875 289.945312 243.773438 293.542969 247.390625 Z M 198.742188 236.050781 C 195.347656 239.460938 192.269531 243.210938 189.585938 247.199219 C 187.402344 250.449219 185.464844 253.878906 183.8125 257.425781 L 198.707031 263.300781 C 201.570312 257.410156 205.367188 252.070312 210.027344 247.390625 C 210.628906 246.789062 211.238281 246.199219 211.855469 245.628906 L 200.925781 233.945312 C 200.183594 234.632812 199.457031 235.335938 198.742188 236.050781 Z M 320.902344 260.003906 C 319.023438 255.535156 316.695312 251.230469 313.984375 247.199219 C 313.269531 246.136719 312.523438 245.089844 311.753906 244.0625 C 311.640625 244.214844 311.507812 244.359375 311.359375 244.492188 L 299.691406 254.628906 C 302.285156 258.234375 304.464844 262.121094 306.203125 266.25 C 309.089844 273.101562 310.640625 280.359375 310.824219 287.84375 L 326.785156 287.84375 C 326.601562 278.203125 324.625 268.84375 320.902344 260.003906 Z M 309.617188 242.46875 L 254.464844 276.023438 C 253.308594 275.5625 252.046875 275.308594 250.726562 275.308594 C 245.128906 275.308594 240.589844 279.867188 240.589844 285.492188 C 240.589844 291.117188 245.128906 295.675781 250.726562 295.675781 C 256.324219 295.675781 260.863281 291.117188 260.863281 285.492188 C 260.863281 285.277344 260.859375 285.066406 260.84375 284.855469 Z M 309.617188 242.46875 " clip-rule="nonzero"/></clipPath><clipPath id="e4423d6395"><path d="M 222.582031 219.90625 C 218.136719 221.792969 213.847656 224.132812 209.839844 226.851562 C 207.433594 228.484375 205.121094 230.261719 202.914062 232.167969 L 213.855469 243.863281 C 218.355469 240.0625 223.367188 236.980469 228.800781 234.671875 C 229.832031 234.234375 230.871094 233.828125 231.917969 233.449219 L 226.804688 218.261719 C 225.382812 218.765625 223.976562 219.3125 222.582031 219.90625 Z M 279.292969 236.820312 L 287.753906 223.191406 C 285.550781 221.980469 283.289062 220.882812 280.988281 219.90625 C 275.058594 217.382812 268.890625 215.660156 262.5625 214.746094 L 260.207031 230.609375 C 265.210938 231.324219 270.085938 232.679688 274.769531 234.671875 C 276.3125 235.328125 277.820312 236.042969 279.292969 236.820312 Z M 182.667969 260.003906 C 178.945312 268.84375 176.972656 278.203125 176.785156 287.84375 L 192.75 287.84375 C 192.929688 280.359375 194.484375 273.101562 197.367188 266.25 C 197.441406 266.078125 197.515625 265.90625 197.589844 265.730469 L 182.726562 259.871094 C 182.707031 259.914062 182.6875 259.957031 182.667969 260.003906 Z M 257.5625 230.292969 L 259.921875 214.414062 C 257.238281 214.125 254.523438 213.976562 251.785156 213.976562 C 244.085938 213.976562 236.558594 215.132812 229.328125 217.414062 L 234.445312 232.609375 C 240.03125 230.882812 245.839844 230.011719 251.785156 230.011719 C 253.726562 230.011719 255.652344 230.105469 257.5625 230.292969 Z M 293.542969 247.390625 C 293.902344 247.75 294.253906 248.113281 294.601562 248.480469 L 308.242188 240.183594 C 308.332031 240.128906 308.425781 240.082031 308.519531 240.035156 C 307.335938 238.664062 306.105469 237.332031 304.832031 236.050781 C 301.4375 232.644531 297.703125 229.546875 293.734375 226.851562 C 292.535156 226.039062 291.308594 225.261719 290.0625 224.519531 L 281.621094 238.121094 C 285.953125 240.671875 289.945312 243.773438 293.542969 247.390625 Z M 198.742188 236.050781 C 195.347656 239.460938 192.269531 243.210938 189.585938 247.199219 C 187.402344 250.449219 185.464844 253.878906 183.8125 257.425781 L 198.707031 263.300781 C 201.570312 257.410156 205.367188 252.070312 210.027344 247.390625 C 210.628906 246.789062 211.238281 246.199219 211.855469 245.628906 L 200.925781 233.945312 C 200.183594 234.632812 199.457031 235.335938 198.742188 236.050781 Z M 320.902344 260.003906 C 319.023438 255.535156 316.695312 251.230469 313.984375 247.199219 C 313.269531 246.136719 312.523438 245.089844 311.753906 244.0625 C 311.640625 244.214844 311.507812 244.359375 311.359375 244.492188 L 299.691406 254.628906 C 302.285156 258.234375 304.464844 262.121094 306.203125 266.25 C 309.089844 273.101562 310.640625 280.359375 310.824219 287.84375 L 326.785156 287.84375 C 326.601562 278.203125 324.625 268.84375 320.902344 260.003906 Z M 309.617188 242.46875 L 254.464844 276.023438 C 253.308594 275.5625 252.046875 275.308594 250.726562 275.308594 C 245.128906 275.308594 240.589844 279.867188 240.589844 285.492188 C 240.589844 291.117188 245.128906 295.675781 250.726562 295.675781 C 256.324219 295.675781 260.863281 291.117188 260.863281 285.492188 C 260.863281 285.277344 260.859375 285.066406 260.84375 284.855469 L 309.617188 242.46875 " clip-rule="nonzero"/></clipPath></defs><g clip-path="url(#8c5c87a5fb)"><rect x="-37.5" width="450" fill="#ffffff" y="-37.499999" height="449.999989" fill-opacity="1"/><path stroke-linecap="butt" transform="matrix(0.75, 0, 0, 0.75, 0.0000045, 0)" fill="none" stroke-linejoin="miter" d="M 249.999994 0 C 111.927078 0 -0.000006 111.927084 -0.000006 250 C -0.000006 388.072917 111.927078 500.000001 249.999994 500.000001 C 388.072911 500.000001 499.999995 388.072917 499.999995 250 C 499.999995 111.927084 388.072911 0 249.999994 0 " stroke="#000000" stroke-width="2" stroke-opacity="1" stroke-miterlimit="4"/></g><path fill="#263238" d="M 195.917969 179.804688 C 199.523438 206.898438 180.453125 231.773438 153.335938 235.339844 C 126.6875 238.839844 101.351562 219.488281 97.816406 192.828125 C 94.210938 165.765625 113.28125 140.925781 140.433594 137.324219 C 167.082031 133.824219 192.378906 153.179688 195.917969 179.804688 " fill-opacity="1" fill-rule="nonzero"/><path stroke-linecap="butt" transform="matrix(0.0382517, 0, 0, -0.0382186, -3.723992, 378.514722)" fill="none" stroke-linejoin="round" d="M 5219.165349 5199.305567 C 5313.421774 4490.389758 4814.873705 3839.528184 4105.959184 3746.212132 C 3409.299019 3654.633619 2746.951052 4160.972852 2654.532781 4858.543556 C 2560.276356 5566.6417 3058.824424 6216.5834 3768.658022 6310.819326 C 4465.318187 6402.397838 5126.644958 5895.956397 5219.165349 5199.305567 Z M 5219.165349 5199.305567 " stroke="#000000" stroke-width="300" stroke-opacity="1" stroke-miterlimit="10"/><path fill="#263238" d="M 315.914062 186.300781 C 315.949219 213.628906 293.78125 235.777344 266.425781 235.746094 C 239.511719 235.746094 217.007812 213.226562 216.972656 186.367188 C 216.972656 159.070312 239.136719 136.886719 266.496094 136.921875 C 293.375 136.921875 315.914062 159.4375 315.914062 186.300781 " fill-opacity="1" fill-rule="nonzero"/><path stroke-linecap="butt" transform="matrix(0.0382517, 0, 0, -0.0382186, -3.723992, 378.514722)" fill="none" stroke-linejoin="round" d="M 8356.178483 5029.333394 C 8357.09756 4314.285095 7777.568619 3734.764818 7062.4248 3735.582483 C 6358.8205 3735.582483 5770.50927 4324.812536 5769.590193 5027.595855 C 5769.590193 5741.826489 6349.017015 6322.26664 7064.262953 6321.346766 C 7766.948177 6321.346766 8356.178483 5732.218922 8356.178483 5029.333394 Z M 8356.178483 5029.333394 " stroke="#000000" stroke-width="300" stroke-opacity="1" stroke-miterlimit="10"/><path fill="#2c3e50" d="M 162.128906 184.367188 C 162.203125 185.058594 162.277344 185.75 162.277344 186.402344 C 162.277344 188.507812 161.839844 190.539062 161.039062 192.390625 C 160.570312 193.515625 159.914062 194.605469 159.113281 195.660156 C 157.371094 197.910156 155.152344 199.542969 152.683594 200.523438 C 151.484375 200.996094 150.285156 201.324219 149.011719 201.503906 C 146.179688 201.867188 143.417969 201.433594 140.984375 200.417969 C 139.820312 199.90625 138.730469 199.253906 137.710938 198.492188 C 135.421875 196.785156 133.785156 194.5 132.804688 192.027344 C 132.332031 190.902344 132.007812 189.667969 131.824219 188.363281 C 131.460938 185.53125 131.859375 182.808594 132.949219 180.375 C 133.421875 179.210938 134.039062 178.085938 134.839844 177.070312 C 136.585938 174.820312 138.800781 173.148438 141.273438 172.207031 C 142.472656 171.734375 143.671875 171.40625 144.976562 171.226562 C 147.777344 170.863281 150.539062 171.296875 153.007812 172.316406 C 154.136719 172.824219 155.226562 173.476562 156.28125 174.238281 C 158.535156 175.980469 160.167969 178.234375 161.1875 180.699219 C 161.65625 181.828125 161.984375 183.0625 162.128906 184.367188 " fill-opacity="1" fill-rule="nonzero"/><path stroke-linecap="butt" transform="matrix(0.0382517, 0, 0, -0.0382186, -3.723992, 378.514722)" fill="none" stroke-linejoin="round" d="M 4335.830487 5079.926434 C 4337.77076 5061.83559 4339.711033 5043.744745 4339.711033 5026.675982 C 4339.711033 4971.585783 4328.273634 4918.437539 4307.339109 4869.99087 C 4295.084752 4840.55492 4277.928653 4812.038842 4256.994127 4784.442639 C 4211.448769 4725.570738 4153.444815 4682.847726 4088.905205 4657.193477 C 4057.554476 4644.82629 4026.203747 4636.240804 3992.912746 4631.539229 C 3918.876009 4622.03387 3846.677425 4633.378976 3783.056891 4659.953098 C 3752.625239 4673.342367 3724.133861 4690.41113 3697.480635 4710.341722 C 3637.638528 4755.006688 3594.8504 4814.798463 3569.218371 4879.496229 C 3556.861895 4908.93218 3548.385965 4941.229959 3543.586342 4975.367485 C 3534.089216 5049.468402 3544.505419 5120.707491 3572.996798 5184.383176 C 3585.353274 5214.841208 3601.488176 5244.277158 3622.422702 5270.85128 C 3668.07018 5329.723181 3725.972014 5373.468275 3790.613744 5398.100442 C 3821.964473 5410.467629 3853.315202 5419.053115 3887.42316 5423.75469 C 3960.64294 5433.260049 4032.841524 5421.914943 4097.381134 5395.238613 C 4126.89371 5381.951552 4155.385088 5364.882789 4182.95739 5344.952198 C 4241.880421 5299.367357 4284.566429 5240.393248 4311.219655 5175.899898 C 4323.474011 5146.361739 4332.052061 5114.06396 4335.830487 5079.926434 Z M 4335.830487 5079.926434 " stroke="#000000" stroke-width="300" stroke-opacity="1" stroke-miterlimit="10"/><path fill="#2c3e50" d="M 154.28125 145.191406 C 157.1875 159.753906 154.828125 168.320312 153.007812 172.277344 L 153.007812 172.316406 C 150.539062 171.296875 147.777344 170.863281 144.976562 171.226562 C 143.671875 171.40625 142.472656 171.734375 141.273438 172.207031 L 141.273438 172.167969 C 140.945312 166.796875 138.621094 155.105469 126.011719 145.703125 C 124.265625 144.324219 124.558594 141.5625 126.628906 140.65625 C 130.878906 138.769531 135.53125 137.425781 140.398438 136.769531 C 141.238281 136.660156 142.070312 136.589844 142.90625 136.515625 C 148.359375 136.042969 153.226562 139.855469 154.28125 145.191406 " fill-opacity="1" fill-rule="nonzero"/><path stroke-linecap="butt" transform="matrix(0.0382517, 0, 0, -0.0382186, -3.723992, 378.514722)" fill="none" stroke-linejoin="round" d="M 4130.672136 6104.972088 C 4206.649146 5723.940061 4144.968885 5499.797562 4097.381134 5396.260695 L 4097.381134 5395.238613 C 4032.841524 5421.914943 3960.64294 5433.260049 3887.42316 5423.75469 C 3853.315202 5419.053115 3821.964473 5410.467629 3790.613744 5398.100442 L 3790.613744 5399.122523 C 3782.035695 5539.658746 3721.274511 5845.567774 3391.632322 6091.582819 C 3345.984844 6127.6623 3353.643817 6199.92347 3407.767225 6223.635764 C 3518.87339 6273.002306 3640.497878 6308.161913 3767.738946 6325.332884 C 3789.694668 6328.194713 3811.44615 6330.03446 3833.299753 6331.976415 C 3975.858766 6344.343603 4103.099834 6244.588437 4130.672136 6104.972088 Z M 4130.672136 6104.972088 " stroke="#000000" stroke-width="300" stroke-opacity="1" stroke-miterlimit="10"/><path fill="#2c3e50" d="M 110.050781 166.710938 C 124.804688 168.445312 132.234375 173.335938 135.4375 176.289062 L 135.472656 176.296875 C 133.738281 178.332031 132.472656 180.820312 131.953125 183.59375 C 131.722656 184.890625 131.664062 186.132812 131.742188 187.417969 L 131.707031 187.40625 C 126.488281 186.058594 114.644531 184.652344 101.796875 193.730469 C 99.945312 194.960938 97.410156 193.832031 97.183594 191.585938 C 96.699219 186.960938 96.859375 182.125 97.742188 177.296875 C 97.898438 176.46875 98.085938 175.652344 98.273438 174.835938 C 99.507812 169.511719 104.644531 166.0625 110.050781 166.710938 " fill-opacity="1" fill-rule="nonzero"/><path stroke-linecap="butt" transform="matrix(0.0382517, 0, 0, -0.0382186, -3.723992, 378.514722)" fill="none" stroke-linejoin="round" d="M 2974.371484 5541.907325 C 3360.077354 5496.526901 3554.206784 5368.562283 3638.047006 5291.292913 L 3638.966083 5291.088496 C 3593.624964 5237.838044 3560.538202 5172.731445 3546.95629 5100.16365 C 3540.931231 5066.230541 3539.399437 5033.728345 3541.44183 5000.10186 L 3540.522753 5000.408484 C 3404.090918 5035.6703 3094.464178 5072.465238 2758.592691 4834.933471 C 2710.187983 4802.7379 2643.912338 4832.276058 2637.9894 4891.045751 C 2625.326565 5012.060215 2629.51347 5138.593919 2652.592508 5264.923207 C 2656.677293 5286.591337 2661.579036 5307.952843 2666.480778 5329.314349 C 2698.750584 5468.624073 2833.037907 5558.87388 2974.371484 5541.907325 Z M 2974.371484 5541.907325 " stroke="#000000" stroke-width="300" stroke-opacity="1" stroke-miterlimit="10"/><path fill="#2c3e50" d="M 116.859375 215.386719 C 123.074219 201.902344 130.027344 196.359375 133.824219 194.222656 L 133.84375 194.195312 C 135.246094 196.46875 137.222656 198.441406 139.699219 199.789062 C 140.867188 200.414062 142.027344 200.855469 143.277344 201.175781 L 143.253906 201.203125 C 140.359375 205.742188 135.363281 216.566406 140.03125 231.578125 C 140.632812 233.71875 138.773438 235.78125 136.5625 235.300781 C 132.011719 234.332031 127.457031 232.683594 123.136719 230.355469 C 122.394531 229.953125 121.675781 229.519531 120.957031 229.085938 C 116.269531 226.269531 114.574219 220.324219 116.859375 215.386719 " fill-opacity="1" fill-rule="nonzero"/><path stroke-linecap="butt" transform="matrix(0.0382517, 0, 0, -0.0382186, -3.723992, 378.514722)" fill="none" stroke-linejoin="round" d="M 3152.366012 4268.291422 C 3314.838355 4621.113996 3496.611309 4766.147378 3595.871596 4822.055242 L 3596.382194 4822.770699 C 3633.043144 4763.285549 3684.715681 4711.670428 3749.459531 4676.408612 C 3779.993302 4660.055306 3810.322834 4648.505784 3843.001118 4640.124714 L 3842.3884 4639.409257 C 3766.717749 4520.643373 3636.106733 4237.424557 3758.1397 3844.638592 C 3773.866124 3788.628519 3725.257177 3734.66261 3667.457462 3747.234214 C 3548.488085 3772.581838 3429.416588 3815.713682 3316.472269 3876.629747 C 3297.069538 3887.157187 3278.279525 3898.502293 3259.489511 3909.847399 C 3136.945947 3983.539484 3092.626024 4139.100306 3152.366012 4268.291422 Z M 3152.366012 4268.291422 " stroke="#000000" stroke-width="300" stroke-opacity="1" stroke-miterlimit="10"/><path fill="#2c3e50" d="M 165.300781 223.960938 C 154.386719 213.886719 151.257812 205.566406 150.398438 201.300781 L 150.375 201.269531 C 152.972656 200.640625 155.464844 199.371094 157.515625 197.433594 C 158.464844 196.519531 159.242188 195.550781 159.9375 194.464844 L 159.957031 194.496094 C 163.382812 198.648438 172.144531 206.742188 187.875 206.945312 C 190.097656 207.035156 191.484375 209.4375 190.34375 211.390625 C 188.015625 215.414062 185.042969 219.234375 181.488281 222.621094 C 180.875 223.199219 180.242188 223.75 179.609375 224.300781 C 175.476562 227.882812 169.292969 227.65625 165.300781 223.960938 " fill-opacity="1" fill-rule="nonzero"/><path stroke-linecap="butt" transform="matrix(0.0382517, 0, 0, -0.0382186, -3.723992, 378.514722)" fill="none" stroke-linejoin="round" d="M 4418.751633 4043.944507 C 4133.429366 4307.539356 4051.631537 4525.242741 4029.165217 4636.854053 L 4028.552499 4637.671719 C 4096.462058 4654.127233 4161.614386 4687.344885 4215.227196 4738.040133 C 4240.042268 4761.956843 4260.364075 4787.304467 4278.541371 4815.718336 L 4279.051969 4814.900671 C 4368.610891 4706.253395 4597.665237 4494.478084 5008.901016 4489.16326 C 5067.007089 4486.812472 5103.259561 4423.954453 5073.440627 4372.850372 C 5012.577323 4267.575965 4934.864279 4167.616383 4841.935409 4079.001907 C 4825.902626 4063.875099 4809.359245 4049.463748 4792.815864 4035.052397 C 4684.773288 3941.327513 4523.117902 3947.255586 4418.751633 4043.944507 Z M 4418.751633 4043.944507 " stroke="#000000" stroke-width="300" stroke-opacity="1" stroke-miterlimit="10"/><path fill="#2c3e50" d="M 188.429688 180.574219 C 175.46875 187.835938 166.585938 188.242188 162.253906 187.738281 L 162.222656 187.75 C 162.425781 185.085938 161.988281 182.328125 160.777344 179.78125 C 160.199219 178.59375 159.519531 177.554688 158.699219 176.5625 L 158.730469 176.550781 C 163.746094 174.578125 174.15625 168.757812 179.210938 153.867188 C 179.984375 151.785156 182.699219 151.207031 184.203125 152.898438 C 187.316406 156.351562 190.03125 160.359375 192.160156 164.785156 C 192.519531 165.542969 192.847656 166.316406 193.175781 167.085938 C 195.308594 172.121094 193.183594 177.925781 188.429688 180.574219 " fill-opacity="1" fill-rule="nonzero"/><path stroke-linecap="butt" transform="matrix(0.0382517, 0, 0, -0.0382186, -3.723992, 378.514722)" fill="none" stroke-linejoin="round" d="M 5023.402004 5179.170559 C 4684.569048 4989.165587 4452.348993 4978.535938 4339.098316 4991.720791 L 4338.281359 4991.414166 C 4343.59158 5061.120133 4332.15418 5133.279095 4300.497093 5199.918816 C 4285.383387 5230.990097 4267.61457 5258.177468 4246.169446 5284.138341 L 4246.986403 5284.444966 C 4378.108017 5336.060087 4650.25685 5488.350248 4782.399661 5877.967761 C 4802.619349 5932.444711 4873.592497 5947.571519 4912.908557 5903.315385 C 4994.297908 5812.96337 5065.271056 5708.097796 5120.926258 5592.295949 C 5130.321265 5572.467565 5138.899314 5552.230349 5147.477364 5532.095342 C 5203.234685 5400.349021 5147.681603 5248.467693 5023.402004 5179.170559 Z M 5023.402004 5179.170559 " stroke="#000000" stroke-width="300" stroke-opacity="1" stroke-miterlimit="10"/><path fill="#2c3e50" d="M 281.570312 184.367188 C 281.644531 185.058594 281.71875 185.75 281.71875 186.402344 C 281.71875 188.507812 281.28125 190.539062 280.480469 192.390625 C 280.007812 193.515625 279.355469 194.605469 278.554688 195.660156 C 276.808594 197.910156 274.59375 199.542969 272.125 200.523438 C 270.925781 200.996094 269.726562 201.324219 268.453125 201.503906 C 265.617188 201.867188 262.859375 201.433594 260.421875 200.417969 C 259.257812 199.90625 258.167969 199.253906 257.152344 198.492188 C 254.863281 196.785156 253.226562 194.5 252.246094 192.027344 C 251.773438 190.902344 251.449219 189.667969 251.265625 188.363281 C 250.902344 185.53125 251.300781 182.808594 252.390625 180.375 C 252.863281 179.210938 253.480469 178.085938 254.28125 177.070312 C 256.027344 174.820312 258.242188 173.148438 260.714844 172.207031 C 261.910156 171.734375 263.113281 171.40625 264.417969 171.226562 C 267.21875 170.863281 269.980469 171.296875 272.449219 172.316406 C 273.578125 172.824219 274.667969 173.476562 275.722656 174.238281 C 277.972656 175.980469 279.609375 178.234375 280.625 180.699219 C 281.097656 181.828125 281.425781 183.0625 281.570312 184.367188 " fill-opacity="1" fill-rule="nonzero"/><path stroke-linecap="butt" transform="matrix(0.0382517, 0, 0, -0.0382186, -3.723992, 378.514722)" fill="none" stroke-linejoin="round" d="M 7458.342633 5079.926434 C 7460.282906 5061.83559 7462.22318 5043.744745 7462.22318 5026.675982 C 7462.22318 4971.585783 7450.78578 4918.437539 7429.851255 4869.99087 C 7417.494778 4840.55492 7400.440799 4812.038842 7379.506273 4784.442639 C 7333.858796 4725.570738 7275.956961 4682.847726 7211.417351 4657.193477 C 7180.066622 4644.82629 7148.715893 4636.240804 7115.424892 4631.539229 C 7041.286035 4622.03387 6969.189571 4633.378976 6905.466918 4659.953098 C 6875.035266 4673.342367 6846.543887 4690.41113 6819.992781 4710.341722 C 6760.150674 4755.006688 6717.362546 4814.798463 6691.730517 4879.496229 C 6679.374041 4908.93218 6670.898111 4941.229959 6666.098488 4975.367485 C 6656.601362 5049.468402 6667.017565 5120.707491 6695.508944 5184.383176 C 6707.86542 5214.841208 6724.000322 5244.277158 6744.934848 5270.85128 C 6790.582326 5329.723181 6848.48416 5373.468275 6913.12589 5398.100442 C 6944.374499 5410.467629 6975.827348 5419.053115 7009.935306 5423.75469 C 7083.155086 5433.260049 7155.35367 5421.914943 7219.89328 5395.238613 C 7249.405856 5381.951552 7277.897234 5364.882789 7305.469536 5344.952198 C 7364.290447 5299.367357 7407.078575 5240.393248 7433.629681 5175.899898 C 7445.986157 5146.361739 7454.564207 5114.06396 7458.342633 5079.926434 Z M 7458.342633 5079.926434 " stroke="#000000" stroke-width="300" stroke-opacity="1" stroke-miterlimit="10"/><path fill="#2c3e50" d="M 273.722656 145.191406 C 276.628906 159.753906 274.265625 168.320312 272.449219 172.277344 L 272.449219 172.316406 C 269.980469 171.296875 267.21875 170.863281 264.417969 171.226562 C 263.113281 171.40625 261.910156 171.734375 260.714844 172.207031 L 260.714844 172.167969 C 260.386719 166.796875 258.0625 155.105469 245.453125 145.703125 C 243.707031 144.324219 243.996094 141.5625 246.070312 140.65625 C 250.320312 138.769531 254.972656 137.425781 259.839844 136.769531 C 260.675781 136.660156 261.511719 136.589844 262.347656 136.515625 C 267.800781 136.042969 272.667969 139.855469 273.722656 145.191406 " fill-opacity="1" fill-rule="nonzero"/><path stroke-linecap="butt" transform="matrix(0.0382517, 0, 0, -0.0382186, -3.723992, 378.514722)" fill="none" stroke-linejoin="round" d="M 7253.184282 6104.972088 C 7329.161292 5723.940061 7267.378912 5499.797562 7219.89328 5396.260695 L 7219.89328 5395.238613 C 7155.35367 5421.914943 7083.155086 5433.260049 7009.935306 5423.75469 C 6975.827348 5419.053115 6944.374499 5410.467629 6913.12589 5398.100442 L 6913.12589 5399.122523 C 6904.547841 5539.658746 6843.786657 5845.567774 6514.144468 6091.582819 C 6468.49699 6127.6623 6476.053843 6199.92347 6530.279371 6223.635764 C 6641.385536 6273.002306 6763.010024 6308.161913 6890.251092 6325.332884 C 6912.104694 6328.194713 6933.958296 6330.03446 6955.811899 6331.976415 C 7098.370912 6344.343603 7225.61198 6244.588437 7253.184282 6104.972088 Z M 7253.184282 6104.972088 " stroke="#000000" stroke-width="300" stroke-opacity="1" stroke-miterlimit="10"/><path fill="#2c3e50" d="M 229.492188 166.710938 C 244.246094 168.445312 251.671875 173.335938 254.878906 176.289062 L 254.914062 176.296875 C 253.179688 178.332031 251.914062 180.820312 251.394531 183.59375 C 251.164062 184.890625 251.105469 186.132812 251.183594 187.417969 L 251.148438 187.40625 C 245.929688 186.058594 234.085938 184.652344 221.238281 193.730469 C 219.386719 194.960938 216.847656 193.832031 216.625 191.585938 C 216.140625 186.960938 216.300781 182.125 217.183594 177.296875 C 217.335938 176.46875 217.527344 175.652344 217.714844 174.835938 C 218.949219 169.511719 224.085938 166.0625 229.492188 166.710938 " fill-opacity="1" fill-rule="nonzero"/><path stroke-linecap="butt" transform="matrix(0.0382517, 0, 0, -0.0382186, -3.723992, 378.514722)" fill="none" stroke-linejoin="round" d="M 6096.88363 5541.907325 C 6482.5895 5496.526901 6676.71893 5368.562283 6760.559152 5291.292913 L 6761.478229 5291.088496 C 6716.13711 5237.838044 6683.050348 5172.731445 6669.468436 5100.16365 C 6663.443378 5066.230541 6661.911583 5033.728345 6663.953976 5000.10186 L 6663.034899 5000.408484 C 6526.603064 5035.6703 6216.976324 5072.465238 5881.104837 4834.933471 C 5832.700129 4802.7379 5766.322365 4832.276058 5760.501546 4891.045751 C 5747.838711 5012.060215 5752.025616 5138.593919 5775.104654 5264.923207 C 5779.08732 5286.591337 5784.091182 5307.952843 5788.992924 5329.314349 C 5821.26273 5468.624073 5955.550053 5558.87388 6096.88363 5541.907325 Z M 6096.88363 5541.907325 " stroke="#000000" stroke-width="300" stroke-opacity="1" stroke-miterlimit="10"/><path fill="#2c3e50" d="M 236.300781 215.386719 C 242.515625 201.902344 249.464844 196.359375 253.265625 194.222656 L 253.285156 194.195312 C 254.6875 196.46875 256.664062 198.441406 259.140625 199.789062 C 260.308594 200.414062 261.46875 200.855469 262.71875 201.175781 L 262.695312 201.203125 C 259.800781 205.742188 254.800781 216.566406 259.472656 231.578125 C 260.074219 233.71875 258.214844 235.78125 256.003906 235.300781 C 251.453125 234.332031 246.898438 232.683594 242.578125 230.355469 C 241.835938 229.953125 241.117188 229.519531 240.398438 229.085938 C 235.710938 226.269531 234.015625 220.324219 236.300781 215.386719 " fill-opacity="1" fill-rule="nonzero"/><path stroke-linecap="butt" transform="matrix(0.0382517, 0, 0, -0.0382186, -3.723992, 378.514722)" fill="none" stroke-linejoin="round" d="M 6274.878158 4268.291422 C 6437.350501 4621.113996 6619.021335 4766.147378 6718.383742 4822.055242 L 6718.89434 4822.770699 C 6755.55529 4763.285549 6807.227827 4711.670428 6871.971677 4676.408612 C 6902.505448 4660.055306 6932.83498 4648.505784 6965.513264 4640.124714 L 6964.900546 4639.409257 C 6889.229895 4520.643373 6758.51676 4237.424557 6880.651846 3844.638592 C 6896.37827 3788.628519 6847.769323 3734.66261 6789.969608 3747.234214 C 6671.000231 3772.581838 6551.928734 3815.713682 6438.984415 3876.629747 C 6419.581684 3887.157187 6400.791671 3898.502293 6382.001657 3909.847399 C 6259.458093 3983.539484 6215.13817 4139.100306 6274.878158 4268.291422 Z M 6274.878158 4268.291422 " stroke="#000000" stroke-width="300" stroke-opacity="1" stroke-miterlimit="10"/><path fill="#2c3e50" d="M 284.742188 223.960938 C 273.828125 213.886719 270.695312 205.566406 269.839844 201.300781 L 269.816406 201.269531 C 272.414062 200.640625 274.90625 199.371094 276.957031 197.433594 C 277.90625 196.519531 278.683594 195.550781 279.378906 194.464844 L 279.398438 194.496094 C 282.824219 198.648438 291.582031 206.742188 307.316406 206.945312 C 309.539062 207.035156 310.925781 209.4375 309.785156 211.390625 C 307.457031 215.414062 304.484375 219.234375 300.929688 222.621094 C 300.316406 223.199219 299.683594 223.75 299.050781 224.300781 C 294.917969 227.882812 288.734375 227.65625 284.742188 223.960938 " fill-opacity="1" fill-rule="nonzero"/><path stroke-linecap="butt" transform="matrix(0.0382517, 0, 0, -0.0382186, -3.723992, 378.514722)" fill="none" stroke-linejoin="round" d="M 7541.263779 4043.944507 C 7255.941512 4307.539356 7174.041563 4525.242741 7151.677363 4636.854053 L 7151.064645 4637.671719 C 7218.974204 4654.127233 7284.126532 4687.344885 7337.739342 4738.040133 C 7362.554414 4761.956843 7382.876221 4787.304467 7401.053517 4815.718336 L 7401.564115 4814.900671 C 7491.123037 4706.253395 7720.075263 4494.478084 8131.413162 4489.16326 C 8189.519236 4486.812472 8225.771707 4423.954453 8195.952773 4372.850372 C 8135.089469 4267.575965 8057.376425 4167.616383 7964.447555 4079.001907 C 7948.414772 4063.875099 7931.871391 4049.463748 7915.32801 4035.052397 C 7807.285434 3941.327513 7645.630048 3947.255586 7541.263779 4043.944507 Z M 7541.263779 4043.944507 " stroke="#000000" stroke-width="300" stroke-opacity="1" stroke-miterlimit="10"/><path fill="#2c3e50" d="M 307.871094 180.574219 C 294.910156 187.835938 286.023438 188.242188 281.695312 187.738281 L 281.664062 187.75 C 281.867188 185.085938 281.425781 182.328125 280.21875 179.78125 C 279.640625 178.59375 278.960938 177.554688 278.140625 176.5625 L 278.171875 176.550781 C 283.1875 174.578125 293.597656 168.757812 298.652344 153.867188 C 299.425781 151.785156 302.140625 151.207031 303.644531 152.898438 C 306.753906 156.351562 309.472656 160.359375 311.601562 164.785156 C 311.960938 165.542969 312.289062 166.316406 312.617188 167.085938 C 314.75 172.121094 312.625 177.925781 307.871094 180.574219 " fill-opacity="1" fill-rule="nonzero"/><path stroke-linecap="butt" transform="matrix(0.0382517, 0, 0, -0.0382186, -3.723992, 378.514722)" fill="none" stroke-linejoin="round" d="M 8145.91415 5179.170559 C 7807.081194 4989.165587 7574.75902 4978.535938 7461.610462 4991.720791 L 7460.691385 4991.414166 C 7466.103726 5061.120133 7454.564207 5133.279095 7423.009239 5199.918816 C 7407.895533 5230.990097 7390.126716 5258.177468 7368.681592 5284.138341 L 7369.498549 5284.444966 C 7500.620163 5336.060087 7772.768996 5488.350248 7904.911807 5877.967761 C 7925.131495 5932.444711 7996.104643 5947.571519 8035.420703 5903.315385 C 8116.707934 5812.96337 8187.783202 5708.097796 8243.438404 5592.295949 C 8252.833411 5572.467565 8261.41146 5552.230349 8269.98951 5532.095342 C 8325.746832 5400.349021 8270.193749 5248.467693 8145.91415 5179.170559 Z M 8145.91415 5179.170559 " stroke="#000000" stroke-width="300" stroke-opacity="1" stroke-miterlimit="10"/><path fill="#3084b2" d="M 266.425781 235.746094 C 239.511719 235.746094 217.007812 213.226562 216.972656 186.367188 C 216.972656 159.070312 239.136719 136.886719 266.496094 136.921875 C 293.375 136.921875 315.914062 159.4375 315.914062 186.300781 C 315.949219 213.628906 293.78125 235.777344 266.425781 235.746094 Z M 153.335938 235.339844 C 126.6875 238.839844 101.351562 219.488281 97.816406 192.828125 C 94.210938 165.765625 113.28125 140.925781 140.433594 137.324219 C 167.082031 133.824219 192.378906 153.179688 195.917969 179.804688 C 199.523438 206.898438 180.453125 231.773438 153.335938 235.339844 Z M 338.148438 139.648438 L 321.101562 122.617188 C 319.554688 121.101562 317.53125 120.226562 315.339844 120.226562 L 56.546875 120.226562 L 56.546875 252.441406 L 315.339844 252.441406 C 317.53125 252.441406 319.554688 251.566406 321.101562 250.050781 L 338.148438 233.019531 C 339.699219 231.46875 340.542969 229.417969 340.542969 227.261719 L 340.542969 145.402344 C 340.542969 143.25 339.699219 141.195312 338.148438 139.648438 " fill-opacity="1" fill-rule="nonzero"/><path fill="#2d6e92" d="M 328.605469 242.554688 L 321.101562 250.050781 C 319.550781 251.566406 317.53125 252.441406 315.34375 252.441406 L 56.546875 252.441406 L 56.546875 120.222656 L 69.625 120.222656 C 69.625 120.222656 68.589844 220.101562 77.386719 226.863281 C 81.609375 230.109375 103.859375 231.511719 132.65625 233.550781 C 139.191406 235.582031 146.214844 236.277344 153.332031 235.34375 C 154.011719 235.253906 154.691406 235.148438 155.359375 235.035156 C 229.339844 239.507812 328.605469 242.554688 328.605469 242.554688 " fill-opacity="1" fill-rule="nonzero"/><g clip-path="url(#db139a7f0f)"><path stroke-linecap="butt" transform="matrix(0.0382517, 0, 0, -0.0382186, -3.723992, 378.514722)" fill="none" stroke-linejoin="round" d="M 7062.4248 3735.582483 C 6358.8205 3735.582483 5770.50927 4324.812536 5769.590193 5027.595855 C 5769.590193 5741.826489 6349.017015 6322.26664 7064.262953 6321.346766 C 7766.948177 6321.346766 8356.178483 5732.218922 8356.178483 5029.333394 C 8357.09756 4314.285095 7777.568619 3734.764818 7062.4248 3735.582483 Z M 4105.959184 3746.212132 C 3409.299019 3654.633619 2746.951052 4160.972852 2654.532781 4858.543556 C 2560.276356 5566.6417 3058.824424 6216.5834 3768.658022 6310.819326 C 4465.318187 6402.397838 5126.644958 5895.956397 5219.165349 5199.305567 C 5313.421774 4490.389758 4814.873705 3839.528184 4105.959184 3746.212132 Z M 8937.443458 6250.005469 L 8491.793362 6695.633054 C 8451.353985 6735.289821 8398.456013 6758.184449 8341.166897 6758.184449 L 1575.638814 6758.184449 L 1575.638814 3298.7448 L 8341.166897 3298.7448 C 8398.456013 3298.7448 8451.353985 3321.639429 8491.793362 3361.296195 L 8937.443458 3806.92378 C 8977.984954 3847.500421 9000.042796 3901.159705 9000.042796 3957.578611 L 9000.042796 6099.452847 C 9000.042796 6155.769544 8977.984954 6209.531037 8937.443458 6250.005469 Z M 8937.443458 6250.005469 " stroke="#000000" stroke-width="300" stroke-opacity="1" stroke-miterlimit="10"/></g><g clip-path="url(#c8b347f14f)"><path stroke-linecap="round" transform="matrix(0.0382517, 0, 0, -0.0382186, -3.723992, 378.514722)" fill="none" stroke-linejoin="round" d="M 999.990419 7224.355875 L 1507.627136 7224.355875 C 1544.696564 7224.355875 1575.332455 7193.693426 1575.332455 7155.978615 L 1575.332455 2775.643429 " stroke="#000000" stroke-width="300" stroke-opacity="1" stroke-miterlimit="10"/></g><path fill="#2c3e50" d="M 220.597656 252.433594 L 100.878906 252.433594 L 100.878906 266.984375 C 100.878906 267.417969 101.230469 267.773438 101.667969 267.773438 L 117.730469 267.773438 L 117.730469 272.433594 C 124.886719 272.433594 187.375 272.433594 204.097656 272.433594 C 206.074219 272.433594 207.414062 272.433594 207.945312 272.433594 L 213.550781 272.433594 L 213.550781 269.738281 L 229.269531 269.738281 C 229.707031 269.738281 230.0625 269.382812 230.0625 268.945312 L 230.0625 252.433594 L 220.597656 252.433594 " fill-opacity="1" fill-rule="nonzero"/><g clip-path="url(#ecf9eeeb3f)"><path stroke-linecap="butt" transform="matrix(0.0382517, 0, 0, -0.0382186, -3.723992, 378.514722)" fill="none" stroke-linejoin="round" d="M 5864.357217 3298.949217 L 2734.594576 3298.949217 L 2734.594576 2918.223814 C 2734.594576 2906.878708 2743.785344 2897.577766 2755.222743 2897.577766 L 3175.138691 2897.577766 L 3175.138691 2775.643429 C 3362.221866 2775.643429 4995.829702 2775.643429 5433.003869 2775.643429 C 5484.676406 2775.643429 5519.703441 2775.643429 5533.591712 2775.643429 L 5680.133391 2775.643429 L 5680.133391 2846.16706 L 6091.062811 2846.16706 C 6102.50021 2846.16706 6111.793097 2855.468003 6111.793097 2866.915317 L 6111.793097 3298.949217 Z M 5864.357217 3298.949217 " stroke="#000000" stroke-width="300" stroke-opacity="1" stroke-miterlimit="10"/></g><g clip-path="url(#fcccd2e531)"><g clip-path="url(#0b33f0d67b)"><g clip-path="url(#e4423d6395)"><path fill="#ff5757" d="M 347.898438 219.917969 L 187.691406 174.851562 L 155.671875 289.734375 L 315.878906 334.800781 Z M 347.898438 219.917969 " fill-opacity="1" fill-rule="nonzero"/></g></g></g></svg>