<svg xmlns="http://www.w3.org/2000/svg" xmlns:xlink="http://www.w3.org/1999/xlink" width="500" zoomAndPan="magnify" viewBox="0 0 375 374.999991" height="500" preserveAspectRatio="xMidYMid meet" version="1.0"><defs><clipPath id="a0dac4b1e0"><path d="M 187.5 0 C 83.945312 0 0 83.945312 0 187.5 C 0 291.054688 83.945312 375 187.5 375 C 291.054688 375 375 291.054688 375 187.5 C 375 83.945312 291.054688 0 187.5 0 " clip-rule="nonzero"/></clipPath><clipPath id="369e392362"><path d="M 82 39 L 285.113281 39 L 285.113281 343.261719 L 82 343.261719 Z M 82 39 " clip-rule="nonzero"/></clipPath><clipPath id="fa23070373"><path d="M 77 19.261719 L 220 19.261719 L 220 306 L 77 306 Z M 77 19.261719 " clip-rule="nonzero"/></clipPath><clipPath id="95a43d83b3"><path d="M 137 191 L 297 191 L 297 237 L 137 237 Z M 137 191 " clip-rule="nonzero"/></clipPath><clipPath id="d1b1d1da32"><path d="M 182.136719 131.015625 L 306.953125 208.671875 L 251.882812 297.1875 L 127.066406 219.535156 Z M 182.136719 131.015625 " clip-rule="nonzero"/></clipPath><clipPath id="8b7805311b"><path d="M 182.136719 131.015625 L 306.953125 208.671875 L 251.882812 297.1875 L 127.066406 219.535156 Z M 182.136719 131.015625 " clip-rule="nonzero"/></clipPath></defs><g clip-path="url(#a0dac4b1e0)"><rect x="-37.5" width="450" fill="#ffffff" y="-37.499999" height="449.999989" fill-opacity="1"/><path stroke-linecap="butt" transform="matrix(0.75, 0, 0, 0.75, 0.0000045, 0)" fill="none" stroke-linejoin="miter" d="M 249.999994 0 C 111.927078 0 -0.000006 111.927084 -0.000006 250 C -0.000006 388.072917 111.927078 500.000001 249.999994 500.000001 C 388.072911 500.000001 499.999995 388.072917 499.999995 250 C 499.999995 111.927084 388.072911 0 249.999994 0 " stroke="#000000" stroke-width="2" stroke-opacity="1" stroke-miterlimit="4"/></g><g clip-path="url(#369e392362)"><path fill="#3084b2" d="M 100.90625 311.105469 L 92.238281 343.261719 L 285.105469 343.261719 L 272.878906 309.332031 L 190.808594 309.332031 L 190.808594 252.867188 L 262.625 252.867188 L 267.925781 233.699219 L 231.925781 233.148438 L 137.820312 231.070312 L 133.574219 222.863281 C 121.308594 199.15625 129.761719 170.003906 152.8125 156.523438 L 165.570312 149.066406 L 181.964844 170.828125 L 196.808594 188.613281 L 207.097656 199.371094 L 228.929688 182.414062 L 222.75 171.664062 L 130.863281 39.648438 L 99.835938 61.828125 L 139.203125 114.078125 C 123.160156 120.992188 98.894531 137.671875 87.019531 177.105469 C 68.378906 238.996094 118.628906 271.039062 118.628906 271.039062 L 123.199219 266.492188 L 124.597656 310.222656 Z M 100.90625 311.105469 " fill-opacity="1" fill-rule="nonzero"/></g><g clip-path="url(#fa23070373)"><path fill="#54c6c3" d="M 77.253906 58.035156 L 87.050781 71.832031 L 140.871094 34.28125 L 130.703125 19.261719 Z M 144.957031 47.542969 C 144.957031 47.542969 190.136719 110.441406 196.355469 118.84375 C 202.574219 127.246094 219.730469 152.535156 219.730469 152.535156 L 188.519531 177.214844 L 180.914062 183.566406 C 180.914062 183.566406 136.542969 128.25 135.816406 127.136719 C 135.089844 126.023438 104.285156 76.273438 104.285156 76.273438 L 124.53125 63.175781 Z M 115.824219 272.109375 C 115.824219 290.398438 130.664062 305.15625 148.96875 305.15625 C 167.273438 305.15625 181.128906 290.371094 182.109375 272.109375 C 183.148438 252.800781 164.871094 237.375 146.566406 237.375 C 128.261719 237.375 115.824219 253.820312 115.824219 272.109375 Z M 126.867188 271.828125 C 126.867188 259.625 135.167969 248.652344 147.378906 248.652344 C 159.59375 248.652344 171.789062 258.945312 171.097656 271.828125 C 170.441406 284.015625 161.195312 293.882812 148.980469 293.882812 C 136.765625 293.882812 126.867188 284.03125 126.867188 271.828125 Z M 126.867188 271.828125 " fill-opacity="1" fill-rule="nonzero"/></g><g clip-path="url(#95a43d83b3)"><g clip-path="url(#d1b1d1da32)"><g clip-path="url(#8b7805311b)"><path fill="#ff5757" d="M 279.039062 225.414062 C 275.691406 225.304688 273.539062 215.972656 273.539062 215.972656 C 273.539062 215.972656 276.375 206.816406 279.726562 206.929688 L 296.421875 207.488281 C 293.296875 200.730469 286.589844 195.945312 278.652344 195.675781 C 270.917969 195.417969 264.03125 199.507812 260.332031 205.746094 C 231.664062 207.476562 202.914062 206.515625 174.445312 202.863281 C 171.226562 196.390625 164.652344 191.847656 156.914062 191.589844 C 148.96875 191.324219 141.933594 195.652344 138.316406 202.179688 L 155.007812 202.738281 C 158.359375 202.851562 160.507812 212.183594 160.507812 212.183594 C 160.507812 212.183594 157.671875 221.34375 154.324219 221.230469 L 137.632812 220.667969 C 140.753906 227.425781 147.453125 232.214844 155.398438 232.480469 C 162.957031 232.738281 169.691406 228.828125 173.441406 222.832031 C 202.28125 221.074219 231.207031 222.050781 259.847656 225.734375 C 263.152344 231.96875 269.574219 236.3125 277.132812 236.570312 C 285.074219 236.835938 292.117188 232.507812 295.730469 225.976562 Z M 279.039062 225.414062 " fill-opacity="1" fill-rule="nonzero"/></g></g></g></svg>