<svg xmlns="http://www.w3.org/2000/svg" xmlns:xlink="http://www.w3.org/1999/xlink" width="500" zoomAndPan="magnify" viewBox="0 0 375 374.999991" height="500" preserveAspectRatio="xMidYMid meet" version="1.0"><defs><clipPath id="4ea61427f5"><path d="M 187.5 0 C 83.945312 0 0 83.945312 0 187.5 C 0 291.054688 83.945312 375 187.5 375 C 291.054688 375 375 291.054688 375 187.5 C 375 83.945312 291.054688 0 187.5 0 " clip-rule="nonzero"/></clipPath><clipPath id="6a909cc0d4"><path d="M 133 18.1875 L 240 18.1875 L 240 238 L 133 238 Z M 133 18.1875 " clip-rule="nonzero"/></clipPath><clipPath id="c97c53e4c6"><path d="M 120.328125 228 L 254.578125 228 L 254.578125 253.6875 L 120.328125 253.6875 Z M 120.328125 228 " clip-rule="nonzero"/></clipPath><clipPath id="e80022e74f"><path d="M 231 100 L 254.578125 100 L 254.578125 205 L 231 205 Z M 231 100 " clip-rule="nonzero"/></clipPath><clipPath id="bca01b7f5e"><path d="M 174 237.457031 L 201 237.457031 L 201 321 L 174 321 Z M 174 237.457031 " clip-rule="nonzero"/></clipPath><clipPath id="bbd6cbd809"><path d="M 56.625 276 L 318.375 276 L 318.375 322.957031 L 56.625 322.957031 Z M 56.625 276 " clip-rule="nonzero"/></clipPath><clipPath id="b4814d35d8"><path d="M 57 281 L 318 281 L 318 322.957031 L 57 322.957031 Z M 57 281 " clip-rule="nonzero"/></clipPath><clipPath id="a7aebcc9b8"><path d="M 61.058594 320.882812 L 314.0625 320.882812 L 314.0625 324.632812 L 61.058594 324.632812 Z M 61.058594 320.882812 " clip-rule="nonzero"/></clipPath></defs><g clip-path="url(#4ea61427f5)"><rect x="-37.5" width="450" fill="#ffffff" y="-37.499999" height="449.999989" fill-opacity="1"/><path stroke-linecap="butt" transform="matrix(0.75, 0, 0, 0.75, 0.0000045, 0)" fill="none" stroke-linejoin="miter" d="M 249.999994 0 C 111.927078 0 -0.000006 111.927084 -0.000006 250 C -0.000006 388.072917 111.927078 500.000001 249.999994 500.000001 C 388.072911 500.000001 499.999995 388.072917 499.999995 250 C 499.999995 111.927084 388.072911 0 249.999994 0 " stroke="#000000" stroke-width="2" stroke-opacity="1" stroke-miterlimit="4"/></g><path fill="#263238" d="M 181.804688 129.730469 C 201.847656 127.058594 220.246094 141.179688 222.882812 161.265625 C 225.472656 181 211.15625 199.761719 191.441406 202.378906 C 171.421875 205.050781 153.050781 190.929688 150.386719 170.820312 C 147.796875 151.085938 162.113281 132.347656 181.804688 129.730469 " fill-opacity="1" fill-rule="nonzero"/><path stroke-linecap="butt" transform="matrix(0.000000000000000002, -0.0283287, -0.0282691, -0.000000000000000002, 328.785597, 277.580108)" fill="none" stroke-linejoin="round" d="M 5219.08076 5199.34696 C 5313.39774 4490.340949 4814.92423 3839.509081 4105.8922 3746.236998 C 3409.270299 3654.623085 2746.983088 4161.05595 2654.596573 4858.454769 C 2560.279593 5566.631696 3058.753103 6216.496298 3768.612475 6310.735647 C 4465.234376 6402.349559 5126.694245 5895.916694 5219.08076 5199.34696 Z M 5219.08076 5199.34696 " stroke="#000000" stroke-width="300" stroke-opacity="1" stroke-miterlimit="10"/><path fill="#263238" d="M 186.609375 40.859375 C 206.824219 40.835938 223.207031 57.25 223.183594 77.511719 C 223.183594 97.445312 206.527344 114.109375 186.660156 114.136719 C 166.46875 114.136719 150.0625 97.71875 150.085938 77.460938 C 150.085938 57.550781 166.742188 40.859375 186.609375 40.859375 " fill-opacity="1" fill-rule="nonzero"/><path stroke-linecap="butt" transform="matrix(0.000000000000000002, -0.0283287, -0.0282691, -0.000000000000000002, 328.785597, 277.580108)" fill="none" stroke-linejoin="round" d="M 8356.22345 5029.384498 C 8357.050792 4314.298528 7777.635664 3734.767986 7062.39857 3735.597071 C 6358.744262 3735.597071 5770.504154 4324.800274 5769.538921 5027.588147 C 5769.538921 5741.845031 6349.09194 6322.204658 7064.191144 6321.375573 C 7767.018109 6321.375573 8356.22345 5732.17237 8356.22345 5029.384498 Z M 8356.22345 5029.384498 " stroke="#000000" stroke-width="300" stroke-opacity="1" stroke-miterlimit="10"/><path fill="#2c3e50" d="M 185.183594 154.75 C 185.691406 154.695312 186.203125 154.640625 186.683594 154.640625 C 188.242188 154.640625 189.746094 154.964844 191.117188 155.558594 C 191.949219 155.90625 192.753906 156.390625 193.535156 156.984375 C 195.199219 158.277344 196.40625 159.917969 197.132812 161.746094 C 197.480469 162.636719 197.722656 163.523438 197.855469 164.464844 C 198.125 166.566406 197.804688 168.609375 197.050781 170.414062 C 196.675781 171.273438 196.191406 172.082031 195.628906 172.835938 C 194.367188 174.53125 192.675781 175.742188 190.847656 176.46875 C 190.015625 176.820312 189.101562 177.058594 188.136719 177.195312 C 186.039062 177.464844 184.027344 177.167969 182.226562 176.359375 C 181.367188 176.011719 180.535156 175.554688 179.78125 174.960938 C 178.117188 173.667969 176.882812 172.027344 176.183594 170.199219 C 175.835938 169.308594 175.59375 168.421875 175.460938 167.453125 C 175.191406 165.382812 175.515625 163.335938 176.265625 161.503906 C 176.640625 160.671875 177.125 159.863281 177.6875 159.082031 C 178.976562 157.414062 180.644531 156.203125 182.46875 155.449219 C 183.300781 155.101562 184.214844 154.859375 185.183594 154.75 " fill-opacity="1" fill-rule="nonzero"/><path stroke-linecap="butt" transform="matrix(0.000000000000000002, -0.0283287, -0.0282691, -0.000000000000000002, 328.785597, 277.580108)" fill="none" stroke-linejoin="round" d="M 4335.893255 5079.820513 C 4337.82372 5061.857001 4339.754184 5043.755308 4339.754184 5026.759061 C 4339.754184 4971.624897 4328.309288 4918.425264 4307.349959 4869.923781 C 4295.07772 4840.491257 4277.97932 4812.025999 4257.019992 4784.389826 C 4211.378295 4725.524778 4153.464361 4682.826892 4088.931691 4657.125251 C 4057.492697 4644.827154 4026.191595 4636.259941 3992.960027 4631.561791 C 3918.775035 4622.027312 3846.658397 4633.358142 3782.953069 4660.027049 C 3752.617198 4673.292412 3724.073902 4690.426839 3697.46107 4710.324883 C 3637.61667 4754.957302 3594.870671 4814.789616 3569.223071 4879.458261 C 3556.812942 4908.890785 3548.401633 4941.225107 3543.575472 4975.35578 C 3534.061039 5049.558904 3544.540704 5120.722049 3573.084 5184.423427 C 3585.356239 5214.823217 3601.489406 5244.255741 3622.448735 5270.924647 C 3668.090431 5329.789695 3726.004366 5373.454848 3790.537036 5398.189223 C 3821.976029 5410.48732 3853.277132 5419.054533 3887.473932 5423.752683 C 3960.693692 5433.287162 4032.81033 5421.818151 4097.48089 5395.287425 C 4126.851529 5382.022062 4155.394825 5364.887635 4182.972889 5344.98959 C 4241.852056 5299.389905 4284.598056 5240.386677 4311.210888 5175.856213 C 4323.483126 5146.423689 4332.032326 5114.089367 4335.893255 5079.820513 Z M 4335.893255 5079.820513 " stroke="#000000" stroke-width="300" stroke-opacity="1" stroke-miterlimit="10"/><path fill="#2c3e50" d="M 156.203125 160.5625 C 166.972656 158.410156 173.3125 160.160156 176.238281 161.503906 L 176.265625 161.503906 C 175.515625 163.335938 175.191406 165.382812 175.460938 167.453125 C 175.59375 168.421875 175.835938 169.308594 176.183594 170.199219 L 176.15625 170.199219 C 172.183594 170.441406 163.535156 172.160156 156.582031 181.5 C 155.5625 182.792969 153.519531 182.578125 152.847656 181.042969 C 151.453125 177.894531 150.457031 174.449219 149.976562 170.84375 C 149.894531 170.222656 149.839844 169.605469 149.785156 168.988281 C 149.4375 164.949219 152.257812 161.34375 156.203125 160.5625 " fill-opacity="1" fill-rule="nonzero"/><path stroke-linecap="butt" transform="matrix(0.000000000000000002, -0.0283287, -0.0282691, -0.000000000000000002, 328.785597, 277.580108)" fill="none" stroke-linejoin="round" d="M 4130.712458 6104.984341 C 4206.690025 5724.019699 4144.915161 5499.752158 4097.48089 5396.254691 L 4097.48089 5395.287425 C 4032.81033 5421.818151 3960.693692 5433.287162 3887.473932 5423.752683 C 3853.277132 5419.054533 3821.976029 5410.48732 3790.537036 5398.189223 L 3790.537036 5399.156489 C 3781.987836 5539.686427 3721.316095 5845.61886 3391.620338 6091.580797 C 3345.978642 6127.646002 3353.562609 6199.914594 3407.753505 6223.681703 C 3518.893104 6273.012271 3640.512367 6308.248391 3767.785133 6325.244637 C 3789.709694 6328.146436 3811.496365 6330.080968 3833.283036 6332.0155 C 3975.861627 6344.313597 4103.134394 6244.547013 4130.712458 6104.984341 Z M 4130.712458 6104.984341 " stroke="#000000" stroke-width="300" stroke-opacity="1" stroke-miterlimit="10"/><path fill="#2c3e50" d="M 172.121094 193.320312 C 173.402344 182.390625 177.023438 176.894531 179.203125 174.519531 L 179.210938 174.492188 C 180.71875 175.777344 182.558594 176.714844 184.609375 177.101562 C 185.566406 177.269531 186.484375 177.3125 187.4375 177.257812 L 187.429688 177.28125 C 186.429688 181.144531 185.394531 189.917969 192.105469 199.433594 C 193.015625 200.804688 192.183594 202.683594 190.519531 202.847656 C 187.097656 203.207031 183.523438 203.089844 179.949219 202.4375 C 179.339844 202.320312 178.734375 202.179688 178.128906 202.042969 C 174.191406 201.128906 171.640625 197.324219 172.121094 193.320312 " fill-opacity="1" fill-rule="nonzero"/><path stroke-linecap="butt" transform="matrix(0.000000000000000002, -0.0283287, -0.0282691, -0.000000000000000002, 328.785597, 277.580108)" fill="none" stroke-linejoin="round" d="M 2974.364227 5541.897321 C 3360.181345 5496.573998 3554.193026 5368.480337 3638.030341 5291.375415 L 3638.995574 5291.099054 C 3593.629658 5237.76124 3560.535981 5172.678053 3546.884839 5100.1331 C 3540.955555 5066.278788 3539.438762 5033.806285 3541.369226 5000.090155 L 3540.541884 5000.366516 C 3404.168357 5035.740817 3094.466696 5072.358746 2758.565875 4834.964023 C 2710.166372 4802.767881 2643.841128 4832.200405 2638.049734 4891.065453 C 2625.363825 5012.11189 2629.500534 5138.54738 2652.528218 5264.98287 C 2656.664928 5286.539085 2661.628979 5307.957119 2666.45514 5329.375153 C 2698.721476 5468.661463 2833.026648 5558.893567 2974.364227 5541.897321 Z M 2974.364227 5541.897321 " stroke="#000000" stroke-width="300" stroke-opacity="1" stroke-miterlimit="10"/><path fill="#2c3e50" d="M 208.125 188.277344 C 198.152344 183.675781 194.050781 178.527344 192.472656 175.714844 L 192.449219 175.699219 C 194.128906 174.660156 195.589844 173.195312 196.589844 171.363281 C 197.050781 170.5 197.375 169.636719 197.613281 168.714844 L 197.632812 168.730469 C 200.992188 170.875 209 174.574219 220.101562 171.117188 C 221.683594 170.671875 223.210938 172.050781 222.855469 173.6875 C 222.136719 177.054688 220.921875 180.429688 219.195312 183.628906 C 218.898438 184.179688 218.578125 184.710938 218.257812 185.242188 C 216.175781 188.714844 211.777344 189.96875 208.125 188.277344 " fill-opacity="1" fill-rule="nonzero"/><path stroke-linecap="butt" transform="matrix(0.000000000000000002, -0.0283287, -0.0282691, -0.000000000000000002, 328.785597, 277.580108)" fill="none" stroke-linejoin="round" d="M 3152.380631 4268.284301 C 3314.815429 4621.060046 3496.554872 4766.149952 3595.835903 4821.975021 L 3596.387464 4822.804107 C 3633.06629 4763.386335 3684.77516 4711.706692 3749.445721 4676.332391 C 3779.919481 4660.027049 3810.393242 4648.558037 3842.935358 4640.129005 L 3842.383797 4639.4381 C 3766.682011 4520.602558 3636.099877 4237.331787 3758.132811 3844.621773 C 3773.852307 3788.658523 3725.177024 3734.629805 3667.40098 3747.204264 C 3548.539523 3772.629543 3429.402286 3815.603791 3316.470113 3876.679733 C 3297.027578 3887.181479 3278.274494 3898.512309 3259.521411 3909.84314 C 3136.936915 3983.493541 3092.674122 4139.085193 3152.380631 4268.284301 Z M 3152.380631 4268.284301 " stroke="#000000" stroke-width="300" stroke-opacity="1" stroke-miterlimit="10"/><path fill="#2c3e50" d="M 214.464844 152.402344 C 207.015625 160.488281 200.863281 162.804688 197.707031 163.441406 L 197.683594 163.457031 C 197.21875 161.53125 196.28125 159.6875 194.847656 158.167969 C 194.171875 157.464844 193.453125 156.890625 192.648438 156.375 L 192.671875 156.359375 C 195.746094 153.824219 201.730469 147.335938 201.878906 135.683594 C 201.949219 134.039062 203.726562 133.011719 205.167969 133.855469 C 208.144531 135.582031 210.96875 137.78125 213.476562 140.414062 C 213.902344 140.867188 214.3125 141.335938 214.71875 141.804688 C 217.367188 144.867188 217.199219 149.445312 214.464844 152.402344 " fill-opacity="1" fill-rule="nonzero"/><path stroke-linecap="butt" transform="matrix(0.000000000000000002, -0.0283287, -0.0282691, -0.000000000000000002, 328.785597, 277.580108)" fill="none" stroke-linejoin="round" d="M 4418.765338 4044.016759 C 4133.332374 4307.527666 4051.563414 4525.162526 4029.087291 4636.812664 L 4028.53573 4637.641749 C 4096.515658 4654.085272 4161.59989 4687.248679 4215.239224 4737.961056 C 4240.059482 4761.866346 4260.329359 4787.291625 4278.530882 4815.756882 L 4279.082443 4814.927797 C 4368.573261 4706.179458 4597.609084 4494.486374 5008.935911 4489.235502 C 5066.987736 4486.748246 5103.252891 4423.875953 5073.468582 4372.887214 C 5012.52106 4267.593396 4934.888809 4167.688632 4841.950733 4078.976517 C 4825.955456 4063.914803 4809.408617 4049.405812 4792.861779 4035.035003 C 4684.755767 3941.348377 4523.148311 3947.290154 4418.765338 4044.016759 Z M 4418.765338 4044.016759 " stroke="#000000" stroke-width="300" stroke-opacity="1" stroke-miterlimit="10"/><path fill="#2c3e50" d="M 182.375 135.273438 C 187.746094 144.871094 188.046875 151.453125 187.671875 154.65625 L 187.683594 154.683594 C 185.710938 154.53125 183.671875 154.855469 181.789062 155.753906 C 180.910156 156.179688 180.140625 156.683594 179.40625 157.292969 L 179.398438 157.265625 C 177.941406 153.554688 173.632812 145.84375 162.621094 142.101562 C 161.082031 141.527344 160.652344 139.515625 161.902344 138.402344 C 164.460938 136.097656 167.421875 134.085938 170.695312 132.511719 C 171.257812 132.242188 171.828125 132 172.398438 131.757812 C 176.121094 130.179688 180.414062 131.753906 182.375 135.273438 " fill-opacity="1" fill-rule="nonzero"/><path stroke-linecap="butt" transform="matrix(0.000000000000000002, -0.0283287, -0.0282691, -0.000000000000000002, 328.785597, 277.580108)" fill="none" stroke-linejoin="round" d="M 5023.414395 5179.172554 C 4684.617877 4989.173866 4452.272686 4978.53394 4339.202623 4991.799303 L 4338.237391 4991.38476 C 4343.615113 5061.166096 4332.170217 5133.296507 4300.455443 5199.899684 C 4285.425398 5230.990378 4267.637546 5258.212008 4246.126656 5284.19001 L 4247.091889 5284.466372 C 4378.087693 5336.007834 4650.283187 5488.421327 4782.382114 5877.953182 C 4802.651991 5932.396442 4873.665507 5947.596337 4912.964248 5903.378461 C 4994.319537 5812.869995 5065.333053 5708.1289 5120.902852 5592.333336 C 5130.417284 5572.435292 5138.966484 5552.260886 5147.515684 5532.08648 C 5203.223373 5400.400117 5147.653574 5248.539348 5023.414395 5179.172554 Z M 5023.414395 5179.172554 " stroke="#000000" stroke-width="300" stroke-opacity="1" stroke-miterlimit="10"/><path fill="#2c3e50" d="M 185.183594 66.292969 C 185.691406 66.242188 186.203125 66.1875 186.683594 66.1875 C 188.242188 66.1875 189.746094 66.507812 191.117188 67.101562 C 191.949219 67.449219 192.753906 67.9375 193.535156 68.527344 C 195.199219 69.820312 196.40625 71.460938 197.132812 73.292969 C 197.480469 74.179688 197.722656 75.066406 197.855469 76.007812 C 198.125 78.109375 197.804688 80.152344 197.050781 81.957031 C 196.675781 82.816406 196.191406 83.625 195.628906 84.378906 C 194.367188 86.074219 192.675781 87.285156 190.847656 88.011719 C 190.015625 88.363281 189.101562 88.605469 188.136719 88.738281 C 186.039062 89.007812 184.027344 88.710938 182.226562 87.902344 C 181.367188 87.554688 180.535156 87.097656 179.78125 86.503906 C 178.117188 85.214844 176.882812 83.570312 176.183594 81.742188 C 175.835938 80.855469 175.59375 79.964844 175.460938 78.996094 C 175.191406 76.925781 175.515625 74.878906 176.265625 73.050781 C 176.640625 72.214844 177.125 71.410156 177.6875 70.628906 C 178.976562 68.957031 180.644531 67.746094 182.46875 66.992188 C 183.300781 66.644531 184.214844 66.402344 185.183594 66.292969 " fill-opacity="1" fill-rule="nonzero"/><path stroke-linecap="butt" transform="matrix(0.000000000000000002, -0.0283287, -0.0282691, -0.000000000000000002, 328.785597, 277.580108)" fill="none" stroke-linejoin="round" d="M 7458.419571 5079.820513 C 7460.212145 5061.857001 7462.14261 5043.755308 7462.14261 5026.759061 C 7462.14261 4971.624897 7450.835604 4918.425264 7429.876275 4869.923781 C 7417.604036 4840.491257 7400.367746 4812.025999 7379.546308 4784.389826 C 7333.904612 4725.524778 7275.990677 4682.826892 7211.320116 4657.125251 C 7180.019013 4644.827154 7148.717911 4636.259941 7115.486343 4631.561791 C 7041.301351 4622.027312 6969.184713 4633.358142 6905.479385 4660.027049 C 6875.143514 4673.292412 6846.600218 4690.426839 6819.987386 4710.324883 C 6760.142986 4754.957302 6717.396987 4814.789616 6691.749387 4879.458261 C 6679.339258 4908.890785 6670.927949 4941.225107 6666.101788 4975.35578 C 6656.587355 5049.558904 6667.06702 5120.722049 6695.610316 5184.423427 C 6707.882555 5214.823217 6724.015722 5244.255741 6744.975051 5270.924647 C 6790.478857 5329.789695 6848.530682 5373.454848 6913.063352 5398.189223 C 6944.364455 5410.48732 6975.803448 5419.054533 7010.000248 5423.752683 C 7083.082118 5433.287162 7155.336646 5421.818151 7219.869316 5395.287425 C 7249.377845 5382.022062 7277.783251 5364.887635 7305.361315 5344.98959 C 7364.378372 5299.389905 7407.124372 5240.386677 7433.737204 5175.856213 C 7446.009442 5146.423689 7454.558642 5114.089367 7458.419571 5079.820513 Z M 7458.419571 5079.820513 " stroke="#000000" stroke-width="300" stroke-opacity="1" stroke-miterlimit="10"/><path fill="#2c3e50" d="M 156.203125 72.109375 C 166.972656 69.953125 173.3125 71.703125 176.238281 73.050781 L 176.265625 73.050781 C 175.515625 74.878906 175.191406 76.925781 175.460938 78.996094 C 175.59375 79.964844 175.835938 80.855469 176.183594 81.742188 L 176.15625 81.742188 C 172.183594 81.984375 163.535156 83.707031 156.582031 93.042969 C 155.5625 94.335938 153.519531 94.121094 152.847656 92.585938 C 151.453125 89.4375 150.457031 85.992188 149.976562 82.386719 C 149.894531 81.769531 149.839844 81.148438 149.785156 80.53125 C 149.4375 76.492188 152.257812 72.886719 156.203125 72.109375 " fill-opacity="1" fill-rule="nonzero"/><path stroke-linecap="butt" transform="matrix(0.000000000000000002, -0.0283287, -0.0282691, -0.000000000000000002, 328.785597, 277.580108)" fill="none" stroke-linejoin="round" d="M 7253.100884 6104.984341 C 7329.216341 5724.019699 7267.441477 5499.752158 7219.869316 5396.254691 L 7219.869316 5395.287425 C 7155.336646 5421.818151 7083.082118 5433.287162 7010.000248 5423.752683 C 6975.803448 5419.054533 6944.364455 5410.48732 6913.063352 5398.189223 L 6913.063352 5399.156489 C 6904.514152 5539.686427 6843.704521 5845.61886 6514.146654 6091.580797 C 6468.504958 6127.646002 6476.088925 6199.914594 6530.279822 6223.681703 C 6641.41942 6273.012271 6763.038683 6308.248391 6890.311449 6325.244637 C 6912.09812 6328.146436 6934.022681 6330.080968 6955.809352 6332.0155 C 7098.387943 6344.313597 7225.66071 6244.547013 7253.100884 6104.984341 Z M 7253.100884 6104.984341 " stroke="#000000" stroke-width="300" stroke-opacity="1" stroke-miterlimit="10"/><path fill="#2c3e50" d="M 172.121094 104.863281 C 173.402344 93.9375 177.023438 88.4375 179.203125 86.0625 L 179.210938 86.039062 C 180.71875 87.320312 182.558594 88.257812 184.609375 88.644531 C 185.566406 88.8125 186.484375 88.859375 187.4375 88.800781 L 187.429688 88.824219 C 186.429688 92.6875 185.394531 101.460938 192.105469 110.976562 C 193.015625 112.347656 192.183594 114.226562 190.519531 114.390625 C 187.097656 114.75 183.523438 114.632812 179.949219 113.980469 C 179.339844 113.867188 178.734375 113.726562 178.128906 113.585938 C 174.191406 112.671875 171.640625 108.867188 172.121094 104.863281 " fill-opacity="1" fill-rule="nonzero"/><path stroke-linecap="butt" transform="matrix(0.000000000000000002, -0.0283287, -0.0282691, -0.000000000000000002, 328.785597, 277.580108)" fill="none" stroke-linejoin="round" d="M 6096.890543 5541.897321 C 6482.56977 5496.573998 6676.719342 5368.480337 6760.556657 5291.375415 L 6761.383999 5291.099054 C 6716.155974 5237.76124 6683.062297 5172.678053 6669.411155 5100.1331 C 6663.481871 5066.278788 6661.827188 5033.806285 6663.895542 5000.090155 L 6663.068201 5000.366516 C 6526.694673 5035.740817 6216.993012 5072.358746 5881.092191 4834.964023 C 5832.692688 4802.767881 5766.367444 4832.200405 5760.57605 4891.065453 C 5747.890141 5012.11189 5752.026851 5138.54738 5775.054534 5264.98287 C 5779.053353 5286.539085 5784.017405 5307.957119 5788.981457 5329.375153 C 5821.247792 5468.661463 5955.552964 5558.893567 6096.890543 5541.897321 Z M 6096.890543 5541.897321 " stroke="#000000" stroke-width="300" stroke-opacity="1" stroke-miterlimit="10"/><path fill="#2c3e50" d="M 208.125 99.820312 C 198.152344 95.21875 194.050781 90.070312 192.472656 87.257812 L 192.449219 87.242188 C 194.128906 86.203125 195.589844 84.742188 196.589844 82.90625 C 197.050781 82.042969 197.375 81.179688 197.613281 80.257812 L 197.632812 80.273438 C 200.992188 82.417969 209 86.121094 220.101562 82.660156 C 221.683594 82.214844 223.210938 83.59375 222.855469 85.230469 C 222.136719 88.597656 220.921875 91.972656 219.195312 95.171875 C 218.898438 95.722656 218.578125 96.253906 218.257812 96.785156 C 216.175781 100.257812 211.777344 101.515625 208.125 99.820312 " fill-opacity="1" fill-rule="nonzero"/><path stroke-linecap="butt" transform="matrix(0.000000000000000002, -0.0283287, -0.0282691, -0.000000000000000002, 328.785597, 277.580108)" fill="none" stroke-linejoin="round" d="M 6274.906947 4268.284301 C 6437.341745 4621.060046 6619.081188 4766.149952 6718.362219 4821.975021 L 6718.91378 4822.804107 C 6755.592606 4763.386335 6807.163586 4711.706692 6871.972037 4676.332391 C 6902.445798 4660.027049 6932.919558 4648.558037 6965.461674 4640.129005 L 6964.910113 4639.4381 C 6889.208327 4520.602558 6758.488303 4237.331787 6880.659127 3844.621773 C 6896.378623 3788.658523 6847.70334 3734.629805 6789.927296 3747.204264 C 6671.065839 3772.629543 6551.928602 3815.603791 6438.996429 3876.679733 C 6419.553894 3887.181479 6400.80081 3898.512309 6382.047727 3909.84314 C 6259.463231 3983.493541 6215.062548 4139.085193 6274.906947 4268.284301 Z M 6274.906947 4268.284301 " stroke="#000000" stroke-width="300" stroke-opacity="1" stroke-miterlimit="10"/><path fill="#2c3e50" d="M 214.464844 63.945312 C 207.015625 72.03125 200.863281 74.347656 197.707031 74.984375 L 197.683594 75 C 197.21875 73.074219 196.28125 71.230469 194.847656 69.714844 C 194.171875 69.007812 193.453125 68.433594 192.648438 67.917969 L 192.671875 67.902344 C 195.746094 65.367188 201.730469 58.878906 201.878906 47.226562 C 201.949219 45.582031 203.726562 44.554688 205.167969 45.398438 C 208.144531 47.125 210.96875 49.328125 213.476562 51.957031 C 213.902344 52.410156 214.3125 52.878906 214.71875 53.351562 C 217.367188 56.410156 217.199219 60.988281 214.464844 63.945312 " fill-opacity="1" fill-rule="nonzero"/><path stroke-linecap="butt" transform="matrix(0.000000000000000002, -0.0283287, -0.0282691, -0.000000000000000002, 328.785597, 277.580108)" fill="none" stroke-linejoin="round" d="M 7541.291654 4044.016759 C 7255.85869 4307.527666 7174.08973 4525.162526 7151.613607 4636.812664 L 7151.062046 4637.641749 C 7219.041974 4654.085272 7284.126206 4687.248679 7337.62765 4737.961056 C 7362.585798 4761.866346 7382.855675 4787.291625 7401.057198 4815.756882 L 7401.608759 4814.927797 C 7491.099577 4706.179458 7720.1354 4494.486374 8131.462227 4489.235502 C 8189.514053 4486.748246 8225.779207 4423.875953 8195.994898 4372.887214 C 8135.047376 4267.593396 8057.277235 4167.688632 7964.477049 4078.976517 C 7948.481772 4063.914803 7931.934933 4049.405812 7915.250204 4035.035003 C 7807.282083 3941.348377 7645.674627 3947.290154 7541.291654 4044.016759 Z M 7541.291654 4044.016759 " stroke="#000000" stroke-width="300" stroke-opacity="1" stroke-miterlimit="10"/><path fill="#2c3e50" d="M 182.375 46.816406 C 187.746094 56.414062 188.046875 62.996094 187.671875 66.203125 L 187.683594 66.226562 C 185.710938 66.078125 183.671875 66.402344 181.789062 67.296875 C 180.910156 67.722656 180.140625 68.230469 179.40625 68.835938 L 179.398438 68.8125 C 177.941406 65.097656 173.632812 57.390625 162.621094 53.644531 C 161.082031 53.070312 160.652344 51.058594 161.902344 49.945312 C 164.460938 47.644531 167.421875 45.632812 170.695312 44.054688 C 171.257812 43.789062 171.828125 43.546875 172.398438 43.304688 C 176.121094 41.722656 180.414062 43.296875 182.375 46.816406 " fill-opacity="1" fill-rule="nonzero"/><path stroke-linecap="butt" transform="matrix(0.000000000000000002, -0.0283287, -0.0282691, -0.000000000000000002, 328.785597, 277.580108)" fill="none" stroke-linejoin="round" d="M 8145.940711 5179.172554 C 7807.144193 4989.173866 7574.799002 4978.53394 7461.591049 4991.799303 L 7460.763707 4991.38476 C 7466.003539 5061.166096 7454.558642 5133.296507 7422.981759 5199.899684 C 7407.951714 5230.990378 7390.025972 5258.212008 7368.652972 5284.19001 L 7369.480314 5284.466372 C 7500.614009 5336.007834 7772.671613 5488.421327 7904.90843 5877.953182 C 7925.178307 5932.396442 7996.191823 5947.596337 8035.490564 5903.378461 C 8116.707963 5812.869995 8187.721478 5708.1289 8243.429168 5592.333336 C 8252.80571 5572.435292 8261.35491 5552.260886 8269.90411 5532.08648 C 8325.74969 5400.400117 8270.17989 5248.539348 8145.940711 5179.172554 Z M 8145.940711 5179.172554 " stroke="#000000" stroke-width="300" stroke-opacity="1" stroke-miterlimit="10"/><path fill="#3084b2" d="M 223.183594 77.511719 C 223.183594 97.445312 206.527344 114.109375 186.660156 114.136719 C 166.46875 114.136719 150.0625 97.71875 150.085938 77.460938 C 150.085938 57.550781 166.742188 40.859375 186.609375 40.859375 C 206.824219 40.835938 223.207031 57.25 223.183594 77.511719 Z M 222.882812 161.265625 C 225.472656 181 211.15625 199.761719 191.441406 202.378906 C 171.421875 205.050781 153.050781 190.929688 150.386719 170.820312 C 147.796875 151.085938 162.113281 132.347656 181.804688 129.730469 C 201.847656 127.058594 220.246094 141.179688 222.882812 161.265625 Z M 152.101562 24.394531 L 139.503906 37.019531 C 138.386719 38.164062 137.738281 39.664062 137.738281 41.285156 L 137.738281 232.945312 L 235.53125 232.945312 L 235.53125 41.285156 C 235.53125 39.664062 234.882812 38.164062 233.765625 37.019531 L 221.167969 24.394531 C 220.019531 23.246094 218.503906 22.621094 216.910156 22.621094 L 156.359375 22.621094 C 154.765625 22.621094 153.25 23.246094 152.101562 24.394531 " fill-opacity="1" fill-rule="nonzero"/><path fill="#2d6e92" d="M 228.21875 31.460938 L 233.765625 37.019531 C 234.882812 38.167969 235.53125 39.664062 235.53125 41.28125 L 235.53125 232.945312 L 137.734375 232.945312 L 137.734375 223.257812 C 137.734375 223.257812 211.613281 224.027344 216.613281 217.511719 C 219.015625 214.382812 220.050781 197.90625 221.558594 176.578125 C 223.0625 171.738281 223.578125 166.535156 222.886719 161.265625 C 222.820312 160.761719 222.742188 160.257812 222.65625 159.765625 C 225.964844 104.976562 228.21875 31.460938 228.21875 31.460938 " fill-opacity="1" fill-rule="nonzero"/><g clip-path="url(#6a909cc0d4)"><path stroke-linecap="butt" transform="matrix(0.000000000000000002, -0.0283287, -0.0282691, -0.000000000000000002, 328.785597, 277.580108)" fill="none" stroke-linejoin="round" d="M 7062.39857 3735.597071 C 6358.744262 3735.597071 5770.504154 4324.800274 5769.538921 5027.588147 C 5769.538921 5741.845031 6349.09194 6322.204658 7064.191144 6321.375573 C 7767.018109 6321.375573 8356.22345 5732.17237 8356.22345 5029.384498 C 8357.050792 4314.298528 7777.635664 3734.767986 7062.39857 3735.597071 Z M 4105.8922 3746.236998 C 3409.270299 3654.623085 2746.983088 4161.05595 2654.596573 4858.454769 C 2560.279593 5566.631696 3058.753103 6216.496298 3768.612475 6310.735647 C 4465.234376 6402.349559 5126.694245 5895.916694 5219.08076 5199.34696 C 5313.39774 4490.340949 4814.92423 3839.509081 4105.8922 3746.236998 Z M 8937.431153 6250.074248 L 8491.769636 6695.707533 C 8451.367772 6735.22726 8398.417889 6758.165283 8341.193405 6758.165283 L 1575.604812 6758.165283 L 1575.604812 3298.807361 L 8341.193405 3298.807361 C 8398.417889 3298.807361 8451.367772 3321.745384 8491.769636 3361.265111 L 8937.431153 3806.898397 C 8977.970907 3847.523571 9000.033359 3901.137746 9000.033359 3957.515538 L 9000.033359 6099.457106 C 9000.033359 6155.834899 8977.970907 6209.449074 8937.431153 6250.074248 Z M 8937.431153 6250.074248 " stroke="#000000" stroke-width="300" stroke-opacity="1" stroke-miterlimit="10"/></g><g clip-path="url(#c97c53e4c6)"><path stroke-linecap="round" transform="matrix(0.000000000000000002, -0.0283287, -0.0282691, -0.000000000000000002, 328.785597, 277.580108)" fill="none" stroke-linejoin="round" d="M 1000.050613 7224.387517 L 1507.624884 7224.387517 C 1544.71738 7224.387517 1575.329031 7193.711366 1575.329031 7155.98799 L 1575.329031 2775.654611 " stroke="#000000" stroke-width="300" stroke-opacity="1" stroke-miterlimit="10"/></g><path fill="#2c3e50" d="M 235.527344 111.449219 L 235.527344 200.113281 L 246.289062 200.113281 C 246.613281 200.113281 246.875 199.851562 246.875 199.527344 L 246.875 187.632812 L 250.320312 187.632812 C 250.320312 182.332031 250.320312 136.054688 250.320312 123.671875 C 250.320312 122.207031 250.320312 121.214844 250.320312 120.820312 L 250.320312 116.667969 L 248.324219 116.667969 L 248.324219 105.027344 C 248.324219 104.707031 248.0625 104.441406 247.742188 104.441406 L 235.527344 104.441406 L 235.527344 111.449219 " fill-opacity="1" fill-rule="nonzero"/><g clip-path="url(#e80022e74f)"><path stroke-linecap="butt" transform="matrix(0.000000000000000002, -0.0283287, -0.0282691, -0.000000000000000002, 328.785597, 277.580108)" fill="none" stroke-linejoin="round" d="M 5864.407462 3298.945542 L 2734.572959 3298.945542 L 2734.572959 2918.257262 C 2734.572959 2906.788251 2743.81161 2897.530133 2755.256507 2897.530133 L 3175.132534 2897.530133 L 3175.132534 2775.654611 C 3362.2497 2775.654611 4995.836331 2775.654611 5432.948648 2775.654611 C 5484.657518 2775.654611 5519.68166 2775.654611 5533.608582 2775.654611 L 5680.185993 2775.654611 L 5680.185993 2846.265032 L 6091.09915 2846.265032 C 6102.406156 2846.265032 6111.782698 2855.52315 6111.782698 2866.853981 L 6111.782698 3298.945542 Z M 5864.407462 3298.945542 " stroke="#000000" stroke-width="300" stroke-opacity="1" stroke-miterlimit="10"/></g><g clip-path="url(#bca01b7f5e)"><path fill="#ff5757" d="M 200.757812 320.371094 L 174.257812 320.371094 L 174.257812 237.457031 L 200.757812 237.457031 L 200.757812 320.371094 " fill-opacity="1" fill-rule="nonzero"/></g><path fill="#ff5757" d="M 295.359375 295.21875 C 295.359375 286.214844 288.070312 278.914062 279.074219 278.914062 C 278.867188 278.914062 278.667969 278.921875 278.460938 278.929688 C 277.769531 270.5625 270.773438 263.988281 262.238281 263.988281 C 254.570312 263.988281 248.144531 269.292969 246.414062 276.4375 C 246.261719 276.433594 246.109375 276.425781 245.953125 276.425781 C 243.390625 276.425781 240.992188 277.128906 238.9375 278.347656 C 235.875 276.097656 232.097656 274.769531 228.011719 274.769531 C 218.050781 274.769531 209.929688 282.65625 209.535156 292.535156 C 208.984375 292.484375 208.425781 292.457031 207.859375 292.457031 C 197.648438 292.457031 189.367188 300.746094 189.367188 310.976562 C 189.367188 314.40625 190.304688 317.613281 191.925781 320.371094 L 291.488281 320.371094 C 292.550781 318.203125 293.152344 315.765625 293.152344 313.183594 C 293.152344 310.546875 292.523438 308.0625 291.414062 305.855469 C 293.871094 303 295.359375 299.285156 295.359375 295.21875 " fill-opacity="1" fill-rule="nonzero"/><path fill="#ff5757" d="M 250.644531 262.054688 C 252.777344 262.054688 254.507812 260.324219 254.507812 258.183594 C 254.507812 256.046875 252.777344 254.316406 250.644531 254.316406 C 248.507812 254.316406 246.777344 256.046875 246.777344 258.183594 C 246.777344 260.324219 248.507812 262.054688 250.644531 262.054688 " fill-opacity="1" fill-rule="nonzero"/><path fill="#ff5757" d="M 283.765625 271.175781 C 285.445312 271.175781 286.804688 269.8125 286.804688 268.132812 C 286.804688 266.457031 285.445312 265.09375 283.765625 265.09375 C 282.089844 265.09375 280.730469 266.457031 280.730469 268.132812 C 280.730469 269.8125 282.089844 271.175781 283.765625 271.175781 " fill-opacity="1" fill-rule="nonzero"/><path fill="#ff5757" d="M 221.109375 270.898438 C 222.328125 270.898438 223.316406 269.90625 223.316406 268.6875 C 223.316406 267.46875 222.328125 266.476562 221.109375 266.476562 C 219.890625 266.476562 218.902344 267.46875 218.902344 268.6875 C 218.902344 269.90625 219.890625 270.898438 221.109375 270.898438 " fill-opacity="1" fill-rule="nonzero"/><path fill="#ff5757" d="M 79.652344 295.21875 C 79.652344 286.214844 86.945312 278.914062 95.9375 278.914062 C 96.144531 278.914062 96.347656 278.921875 96.550781 278.929688 C 97.246094 270.5625 104.242188 263.988281 112.777344 263.988281 C 120.441406 263.988281 126.867188 269.292969 128.597656 276.4375 C 128.753906 276.433594 128.90625 276.425781 129.0625 276.425781 C 131.625 276.425781 134.023438 277.128906 136.078125 278.347656 C 139.140625 276.097656 142.917969 274.769531 147.003906 274.769531 C 156.964844 274.769531 165.085938 282.65625 165.480469 292.535156 C 166.027344 292.484375 166.589844 292.457031 167.152344 292.457031 C 177.367188 292.457031 185.648438 300.746094 185.648438 310.976562 C 185.648438 314.40625 184.710938 317.613281 183.085938 320.371094 L 83.527344 320.371094 C 82.460938 318.203125 81.863281 315.765625 81.863281 313.183594 C 81.863281 310.546875 82.488281 308.0625 83.601562 305.855469 C 81.140625 303 79.652344 299.285156 79.652344 295.21875 " fill-opacity="1" fill-rule="nonzero"/><path fill="#ff5757" d="M 124.367188 262.054688 C 122.234375 262.054688 120.503906 260.320312 120.503906 258.183594 C 120.503906 256.046875 122.234375 254.316406 124.367188 254.316406 C 126.503906 254.316406 128.234375 256.046875 128.234375 258.183594 C 128.234375 260.320312 126.503906 262.054688 124.367188 262.054688 " fill-opacity="1" fill-rule="nonzero"/><path fill="#ff5757" d="M 91.246094 271.175781 C 89.570312 271.175781 88.210938 269.816406 88.210938 268.132812 C 88.210938 266.453125 89.570312 265.09375 91.246094 265.09375 C 92.921875 265.09375 94.28125 266.453125 94.28125 268.132812 C 94.28125 269.816406 92.921875 271.175781 91.246094 271.175781 " fill-opacity="1" fill-rule="nonzero"/><path fill="#ff5757" d="M 153.90625 270.898438 C 152.683594 270.898438 151.695312 269.90625 151.695312 268.6875 C 151.695312 267.46875 152.683594 266.476562 153.90625 266.476562 C 155.125 266.476562 156.113281 267.46875 156.113281 268.6875 C 156.113281 269.90625 155.125 270.898438 153.90625 270.898438 " fill-opacity="1" fill-rule="nonzero"/><path fill="#e8eef1" d="M 193.921875 238.6875 L 192.402344 287.148438 C 192.402344 287.148438 196.78125 251.152344 193.921875 238.6875 " fill-opacity="1" fill-rule="nonzero"/><path fill="#e8eef1" d="M 180.28125 239.242188 L 180.335938 277.363281 C 180.335938 277.363281 178.59375 249.097656 180.28125 239.242188 " fill-opacity="1" fill-rule="nonzero"/><path fill="#e8eef1" d="M 188.484375 276.449219 L 188.246094 302.296875 C 188.246094 302.296875 190.03125 284.191406 188.484375 276.449219 " fill-opacity="1" fill-rule="nonzero"/><path fill="#e8eef1" d="M 183.679688 264.148438 L 183.378906 296.726562 C 183.378906 296.726562 185.628906 273.90625 183.679688 264.148438 " fill-opacity="1" fill-rule="nonzero"/><path fill="#e8eef1" d="M 180.476562 320.371094 L 179.410156 289.457031 L 178.476562 320.371094 Z M 180.476562 320.371094 " fill-opacity="1" fill-rule="nonzero"/><path fill="#e8eef1" d="M 187.261719 320.371094 L 186.191406 302.859375 L 185.257812 320.371094 Z M 187.261719 320.371094 " fill-opacity="1" fill-rule="nonzero"/><path fill="#e8eef1" d="M 196.539062 320.371094 L 195.46875 289.996094 L 194.535156 320.371094 Z M 196.539062 320.371094 " fill-opacity="1" fill-rule="nonzero"/><g clip-path="url(#bbd6cbd809)"><path fill="#242f49" d="M 317.496094 322.949219 C 318.015625 321.226562 318.285156 319.421875 318.285156 317.609375 C 318.285156 308.234375 311.234375 300.355469 302.050781 299.230469 C 302.445312 297.710938 302.644531 296.152344 302.644531 294.574219 C 302.644531 284.363281 294.347656 276.058594 284.148438 276.058594 C 278.570312 276.058594 273.421875 278.496094 269.894531 282.777344 C 266.566406 279.984375 262.382812 278.453125 258.019531 278.453125 C 247.820312 278.453125 239.527344 286.757812 239.527344 296.96875 C 239.527344 297.296875 239.535156 297.636719 239.554688 297.980469 C 233.183594 299.566406 228.136719 304.433594 226.292969 310.714844 C 223.058594 308.199219 219.085938 306.828125 214.960938 306.828125 C 209.230469 306.828125 203.796875 309.519531 200.304688 314.058594 C 198.777344 313.664062 197.210938 313.460938 195.636719 313.460938 C 192.824219 313.460938 190.023438 314.113281 187.507812 315.347656 C 184.992188 314.113281 182.191406 313.460938 179.375 313.460938 C 177.800781 313.460938 176.234375 313.664062 174.710938 314.058594 C 171.21875 309.519531 165.78125 306.828125 160.054688 306.828125 C 155.929688 306.828125 151.953125 308.199219 148.722656 310.714844 C 146.878906 304.433594 141.828125 299.566406 135.460938 297.980469 C 135.476562 297.636719 135.488281 297.296875 135.488281 296.96875 C 135.488281 286.757812 127.191406 278.453125 116.996094 278.453125 C 112.628906 278.453125 108.445312 279.984375 105.121094 282.777344 C 101.589844 278.496094 96.445312 276.058594 90.863281 276.058594 C 80.667969 276.058594 72.371094 284.363281 72.371094 294.574219 C 72.371094 296.152344 72.570312 297.710938 72.960938 299.230469 C 63.78125 300.355469 56.730469 308.234375 56.730469 317.609375 C 56.730469 319.421875 57 321.226562 57.515625 322.949219 L 317.496094 322.949219 " fill-opacity="1" fill-rule="nonzero"/></g><g clip-path="url(#b4814d35d8)"><path fill="#ffffff" d="M 316.300781 322.949219 C 316.832031 321.433594 317.121094 319.816406 317.121094 318.136719 C 317.121094 309.699219 309.867188 302.796875 300.6875 302.246094 C 301.226562 300.71875 301.519531 299.089844 301.519531 297.394531 C 301.519531 288.597656 293.632812 281.464844 283.902344 281.464844 C 278.128906 281.464844 273.007812 283.972656 269.792969 287.851562 C 266.652344 285.226562 262.453125 283.621094 257.835938 283.621094 C 248.109375 283.621094 240.21875 290.753906 240.21875 299.550781 C 240.21875 300.054688 240.25 300.554688 240.296875 301.046875 C 233.496094 302.320312 228.136719 307.136719 226.671875 313.265625 C 223.550781 310.726562 219.417969 309.175781 214.890625 309.175781 C 209 309.175781 203.792969 311.789062 200.59375 315.800781 C 199.011719 315.382812 197.347656 315.152344 195.617188 315.152344 C 192.691406 315.152344 189.933594 315.796875 187.507812 316.9375 C 185.078125 315.796875 182.320312 315.152344 179.394531 315.152344 C 177.667969 315.152344 175.996094 315.382812 174.417969 315.800781 C 171.21875 311.789062 166.011719 309.175781 160.121094 309.175781 C 155.59375 309.175781 151.464844 310.726562 148.34375 313.265625 C 146.875 307.136719 141.515625 302.320312 134.714844 301.046875 C 134.765625 300.554688 134.792969 300.054688 134.792969 299.550781 C 134.792969 290.753906 126.90625 283.621094 117.175781 283.621094 C 112.558594 283.621094 108.359375 285.226562 105.222656 287.851562 C 102.007812 283.972656 96.882812 281.464844 91.109375 281.464844 C 81.378906 281.464844 73.492188 288.597656 73.492188 297.394531 C 73.492188 299.089844 73.785156 300.71875 74.324219 302.246094 C 65.148438 302.796875 57.890625 309.699219 57.890625 318.136719 C 57.890625 319.816406 58.179688 321.433594 58.710938 322.949219 L 316.300781 322.949219 " fill-opacity="1" fill-rule="nonzero"/></g><path fill="#242f49" d="M 284.46875 288.152344 C 291.582031 288.152344 297.355469 293.929688 297.355469 301.058594 C 297.355469 301.675781 297.308594 302.28125 297.226562 302.875 C 297.832031 301.378906 298.167969 299.746094 298.167969 298.03125 C 298.167969 290.90625 292.394531 285.128906 285.28125 285.128906 C 278.777344 285.128906 273.402344 289.949219 272.519531 296.214844 C 274.433594 291.488281 279.0625 288.152344 284.46875 288.152344 " fill-opacity="1" fill-rule="nonzero"/><path fill="#242f49" d="M 246.328125 295.183594 C 249.355469 290.445312 255.644531 289.0625 260.375 292.09375 C 260.785156 292.355469 261.167969 292.644531 261.523438 292.953125 C 260.789062 291.914062 259.851562 290.996094 258.710938 290.269531 C 253.984375 287.234375 247.691406 288.621094 244.667969 293.355469 C 241.902344 297.683594 242.816406 303.308594 246.601562 306.5625 C 244.277344 303.277344 244.03125 298.78125 246.328125 295.183594 " fill-opacity="1" fill-rule="nonzero"/><path fill="#242f49" d="M 242.128906 304.050781 C 241.960938 303.617188 241.8125 303.167969 241.6875 302.714844 C 227.125 304.246094 227.921875 316.910156 232.691406 321.832031 C 229.789062 314.28125 230.117188 306.078125 242.128906 304.050781 " fill-opacity="1" fill-rule="nonzero"/><path fill="#242f49" d="M 90.546875 288.152344 C 83.429688 288.152344 77.660156 293.933594 77.660156 301.058594 C 77.660156 301.675781 77.707031 302.28125 77.789062 302.875 C 77.183594 301.378906 76.847656 299.746094 76.847656 298.03125 C 76.847656 290.90625 82.617188 285.128906 89.734375 285.128906 C 96.238281 285.128906 101.613281 289.949219 102.492188 296.214844 C 100.582031 291.492188 95.953125 288.152344 90.546875 288.152344 " fill-opacity="1" fill-rule="nonzero"/><path fill="#242f49" d="M 128.683594 295.183594 C 125.65625 290.449219 119.371094 289.0625 114.640625 292.09375 C 114.230469 292.355469 113.847656 292.644531 113.488281 292.953125 C 114.222656 291.914062 115.164062 290.996094 116.304688 290.269531 C 121.03125 287.238281 127.320312 288.621094 130.347656 293.355469 C 133.113281 297.683594 132.199219 303.308594 128.414062 306.5625 C 130.734375 303.277344 130.984375 298.78125 128.683594 295.183594 " fill-opacity="1" fill-rule="nonzero"/><path fill="#242f49" d="M 132.886719 304.050781 C 133.054688 303.617188 133.203125 303.167969 133.324219 302.714844 C 147.890625 304.246094 147.09375 316.910156 142.320312 321.832031 C 145.226562 314.28125 144.894531 306.078125 132.886719 304.050781 " fill-opacity="1" fill-rule="nonzero"/><g clip-path="url(#a7aebcc9b8)"><path fill="#ffffff" d="M 61.058594 320.882812 L 314.183594 320.882812 L 314.183594 324.398438 L 61.058594 324.398438 Z M 61.058594 320.882812 " fill-opacity="1" fill-rule="nonzero"/></g></svg>